%TF.GenerationSoftware,KiCad,Pcbnew,10.0.0-10.0.0~ubuntu24.04.1*%
%TF.CreationDate,2026-04-21T15:09:31+02:00*%
%TF.ProjectId,att,6174742e-6b69-4636-9164-5f7063625858,rev?*%
%TF.SameCoordinates,Original*%
%TF.FileFunction,Soldermask,Top*%
%TF.FilePolarity,Negative*%
%FSLAX46Y46*%
G04 Gerber Fmt 4.6, Leading zero omitted, Abs format (unit mm)*
G04 Created by KiCad (PCBNEW 10.0.0-10.0.0~ubuntu24.04.1) date 2026-04-21 15:09:31*
%MOMM*%
%LPD*%
G01*
G04 APERTURE LIST*
G04 Aperture macros list*
%AMRoundRect*
0 Rectangle with rounded corners*
0 $1 Rounding radius*
0 $2 $3 $4 $5 $6 $7 $8 $9 X,Y pos of 4 corners*
0 Add a 4 corners polygon primitive as box body*
4,1,4,$2,$3,$4,$5,$6,$7,$8,$9,$2,$3,0*
0 Add four circle primitives for the rounded corners*
1,1,$1+$1,$2,$3*
1,1,$1+$1,$4,$5*
1,1,$1+$1,$6,$7*
1,1,$1+$1,$8,$9*
0 Add four rect primitives between the rounded corners*
20,1,$1+$1,$2,$3,$4,$5,0*
20,1,$1+$1,$4,$5,$6,$7,0*
20,1,$1+$1,$6,$7,$8,$9,0*
20,1,$1+$1,$8,$9,$2,$3,0*%
%AMFreePoly0*
4,1,37,0.800000,0.796148,0.878414,0.796148,1.032228,0.765552,1.177117,0.705537,1.307515,0.618408,1.418408,0.507515,1.505537,0.377117,1.565552,0.232228,1.596148,0.078414,1.596148,-0.078414,1.565552,-0.232228,1.505537,-0.377117,1.418408,-0.507515,1.307515,-0.618408,1.177117,-0.705537,1.032228,-0.765552,0.878414,-0.796148,0.800000,-0.796148,0.800000,-0.800000,-1.400000,-0.800000,
-1.403843,-0.796157,-1.439018,-0.796157,-1.511114,-0.766294,-1.566294,-0.711114,-1.596157,-0.639018,-1.596157,-0.603843,-1.600000,-0.600000,-1.600000,0.600000,-1.596157,0.603843,-1.596157,0.639018,-1.566294,0.711114,-1.511114,0.766294,-1.439018,0.796157,-1.403843,0.796157,-1.400000,0.800000,0.800000,0.800000,0.800000,0.796148,0.800000,0.796148,$1*%
%AMFreePoly1*
4,1,37,1.403843,0.796157,1.439018,0.796157,1.511114,0.766294,1.566294,0.711114,1.596157,0.639018,1.596157,0.603843,1.600000,0.600000,1.600000,-0.600000,1.596157,-0.603843,1.596157,-0.639018,1.566294,-0.711114,1.511114,-0.766294,1.439018,-0.796157,1.403843,-0.796157,1.400000,-0.800000,-0.800000,-0.800000,-0.800000,-0.796148,-0.878414,-0.796148,-1.032228,-0.765552,-1.177117,-0.705537,
-1.307515,-0.618408,-1.418408,-0.507515,-1.505537,-0.377117,-1.565552,-0.232228,-1.596148,-0.078414,-1.596148,0.078414,-1.565552,0.232228,-1.505537,0.377117,-1.418408,0.507515,-1.307515,0.618408,-1.177117,0.705537,-1.032228,0.765552,-0.878414,0.796148,-0.800000,0.796148,-0.800000,0.800000,1.400000,0.800000,1.403843,0.796157,1.403843,0.796157,$1*%
%AMFreePoly2*
4,1,37,1.600000,0.796148,1.678414,0.796148,1.832228,0.765552,1.977117,0.705537,2.107515,0.618408,2.218408,0.507515,2.305537,0.377117,2.365552,0.232228,2.396148,0.078414,2.396148,-0.078414,2.365552,-0.232228,2.305537,-0.377117,2.218408,-0.507515,2.107515,-0.618408,1.977117,-0.705537,1.832228,-0.765552,1.678414,-0.796148,1.600000,-0.796148,1.600000,-0.800000,-0.600000,-0.800000,
-0.603843,-0.796157,-0.639018,-0.796157,-0.711114,-0.766294,-0.766294,-0.711114,-0.796157,-0.639018,-0.796157,-0.603843,-0.800000,-0.600000,-0.800000,0.600000,-0.796157,0.603843,-0.796157,0.639018,-0.766294,0.711114,-0.711114,0.766294,-0.639018,0.796157,-0.603843,0.796157,-0.600000,0.800000,1.600000,0.800000,1.600000,0.796148,1.600000,0.796148,$1*%
G04 Aperture macros list end*
%ADD10RoundRect,0.190500X-0.444500X1.079500X-0.444500X-1.079500X0.444500X-1.079500X0.444500X1.079500X0*%
%ADD11RoundRect,0.250000X0.262500X0.450000X-0.262500X0.450000X-0.262500X-0.450000X0.262500X-0.450000X0*%
%ADD12RoundRect,0.250000X-0.262500X-0.450000X0.262500X-0.450000X0.262500X0.450000X-0.262500X0.450000X0*%
%ADD13RoundRect,0.250000X0.450000X-0.262500X0.450000X0.262500X-0.450000X0.262500X-0.450000X-0.262500X0*%
%ADD14RoundRect,0.250000X-0.450000X0.262500X-0.450000X-0.262500X0.450000X-0.262500X0.450000X0.262500X0*%
%ADD15RoundRect,0.250000X-0.475000X0.250000X-0.475000X-0.250000X0.475000X-0.250000X0.475000X0.250000X0*%
%ADD16RoundRect,0.250000X0.475000X-0.250000X0.475000X0.250000X-0.475000X0.250000X-0.475000X-0.250000X0*%
%ADD17R,1.700000X1.700000*%
%ADD18C,1.700000*%
%ADD19RoundRect,0.381000X0.889000X0.889000X-0.889000X0.889000X-0.889000X-0.889000X0.889000X-0.889000X0*%
%ADD20C,2.500000*%
%ADD21R,2.400000X3.100000*%
%ADD22RoundRect,0.070000X1.100000X0.250000X-1.100000X0.250000X-1.100000X-0.250000X1.100000X-0.250000X0*%
%ADD23C,0.770000*%
%ADD24RoundRect,0.250000X-0.550000X0.550000X-0.550000X-0.550000X0.550000X-0.550000X0.550000X0.550000X0*%
%ADD25C,1.600000*%
%ADD26O,1.100000X1.800000*%
%ADD27O,1.050000X1.450000*%
%ADD28FreePoly0,0.000000*%
%ADD29RoundRect,0.800000X-0.800000X-0.000010X0.800000X-0.000010X0.800000X0.000010X-0.800000X0.000010X0*%
%ADD30FreePoly1,0.000000*%
%ADD31RoundRect,0.800000X0.000010X-0.800000X0.000010X0.800000X-0.000010X0.800000X-0.000010X-0.800000X0*%
%ADD32FreePoly2,270.000000*%
%ADD33RoundRect,0.300000X-0.450000X-0.450000X0.450000X-0.450000X0.450000X0.450000X-0.450000X0.450000X0*%
%ADD34RoundRect,0.250000X0.550000X-1.500000X0.550000X1.500000X-0.550000X1.500000X-0.550000X-1.500000X0*%
%ADD35RoundRect,0.250000X1.000000X1.000000X-1.000000X1.000000X-1.000000X-1.000000X1.000000X-1.000000X0*%
%ADD36RoundRect,0.190500X-1.079500X-0.444500X1.079500X-0.444500X1.079500X0.444500X-1.079500X0.444500X0*%
G04 APERTURE END LIST*
D10*
%TO.C,U10*%
X105280000Y-80350000D03*
X107530000Y-80350000D03*
X115530000Y-61850000D03*
X117780000Y-61850000D03*
X105280000Y-61850000D03*
X107530000Y-61850000D03*
X115530000Y-80350000D03*
X117780000Y-80350000D03*
%TD*%
D11*
%TO.C,R11*%
X127775000Y-62500000D03*
X129600000Y-62500000D03*
%TD*%
D12*
%TO.C,R10*%
X129587500Y-59000000D03*
X127762500Y-59000000D03*
%TD*%
D13*
%TO.C,R9*%
X71000000Y-110975000D03*
X71000000Y-112800000D03*
%TD*%
%TO.C,R8*%
X71000000Y-103875000D03*
X71000000Y-105700000D03*
%TD*%
%TO.C,R7*%
X71000000Y-96975000D03*
X71000000Y-98800000D03*
%TD*%
%TO.C,R6*%
X71000000Y-89875000D03*
X71000000Y-91700000D03*
%TD*%
D14*
%TO.C,R5*%
X71100000Y-84600000D03*
X71100000Y-82775000D03*
%TD*%
D15*
%TO.C,C13*%
X100800000Y-73450000D03*
X100800000Y-71550000D03*
%TD*%
D16*
%TO.C,C12*%
X64500000Y-121600000D03*
X64500000Y-123500000D03*
%TD*%
D15*
%TO.C,C11*%
X101100000Y-52450000D03*
X101100000Y-50550000D03*
%TD*%
D16*
%TO.C,C9*%
X73700000Y-110900000D03*
X73700000Y-112800000D03*
%TD*%
%TO.C,C8*%
X73700000Y-103800000D03*
X73700000Y-105700000D03*
%TD*%
%TO.C,C7*%
X73700000Y-96900000D03*
X73700000Y-98800000D03*
%TD*%
%TO.C,C6*%
X73700000Y-89800000D03*
X73700000Y-91700000D03*
%TD*%
D15*
%TO.C,C5*%
X73700000Y-84600000D03*
X73700000Y-82700000D03*
%TD*%
%TO.C,C4*%
X73700000Y-77750000D03*
X73700000Y-75850000D03*
%TD*%
D16*
%TO.C,C3*%
X73700000Y-68850000D03*
X73700000Y-70750000D03*
%TD*%
D15*
%TO.C,C2*%
X73700000Y-63550000D03*
X73700000Y-61650000D03*
%TD*%
%TO.C,C1*%
X73700000Y-56650000D03*
X73700000Y-54750000D03*
%TD*%
D17*
%TO.C,J2*%
X128696641Y-115280000D03*
D18*
X126156641Y-115280000D03*
X128696641Y-112740000D03*
X126156641Y-112740000D03*
X128696641Y-110200000D03*
X126156641Y-110200000D03*
X128696641Y-107660000D03*
X126156641Y-107660000D03*
X128696641Y-105120000D03*
X126156641Y-105120000D03*
%TD*%
D19*
%TO.C,U12*%
X78400000Y-123700000D03*
X78400000Y-105700000D03*
X117400000Y-123700000D03*
X117400000Y-105700000D03*
%TD*%
D13*
%TO.C,R4*%
X71000000Y-77712500D03*
X71000000Y-75887500D03*
%TD*%
D20*
%TO.C,H3*%
X56600000Y-123600000D03*
%TD*%
D21*
%TO.C,U7*%
X65100000Y-100600000D03*
D22*
X67975000Y-102505000D03*
X67975000Y-101235000D03*
X67975000Y-99965000D03*
X67975000Y-98695000D03*
X62225000Y-98695000D03*
X62225000Y-99965000D03*
X62225000Y-101235000D03*
X62225000Y-102505000D03*
D23*
X65750000Y-101900000D03*
X65750000Y-100600000D03*
X65750000Y-99300000D03*
X64450000Y-101900000D03*
X64450000Y-100600000D03*
X64450000Y-99300000D03*
%TD*%
D21*
%TO.C,U3*%
X65350000Y-72600000D03*
D22*
X68225000Y-74505000D03*
X68225000Y-73235000D03*
X68225000Y-71965000D03*
X68225000Y-70695000D03*
X62475000Y-70695000D03*
X62475000Y-71965000D03*
X62475000Y-73235000D03*
X62475000Y-74505000D03*
D23*
X66000000Y-73900000D03*
X66000000Y-72600000D03*
X66000000Y-71300000D03*
X64700000Y-73900000D03*
X64700000Y-72600000D03*
X64700000Y-71300000D03*
%TD*%
D20*
%TO.C,H2*%
X128600000Y-51600000D03*
%TD*%
D21*
%TO.C,U6*%
X65200000Y-93600000D03*
D22*
X68075000Y-95505000D03*
X68075000Y-94235000D03*
X68075000Y-92965000D03*
X68075000Y-91695000D03*
X62325000Y-91695000D03*
X62325000Y-92965000D03*
X62325000Y-94235000D03*
X62325000Y-95505000D03*
D23*
X65850000Y-94900000D03*
X65850000Y-93600000D03*
X65850000Y-92300000D03*
X64550000Y-94900000D03*
X64550000Y-93600000D03*
X64550000Y-92300000D03*
%TD*%
D21*
%TO.C,U1*%
X65500000Y-58500000D03*
D22*
X68375000Y-60405000D03*
X68375000Y-59135000D03*
X68375000Y-57865000D03*
X68375000Y-56595000D03*
X62625000Y-56595000D03*
X62625000Y-57865000D03*
X62625000Y-59135000D03*
X62625000Y-60405000D03*
D23*
X66150000Y-59800000D03*
X66150000Y-58500000D03*
X66150000Y-57200000D03*
X64850000Y-59800000D03*
X64850000Y-58500000D03*
X64850000Y-57200000D03*
%TD*%
D24*
%TO.C,C10*%
X71200000Y-119297349D03*
D25*
X71200000Y-124297349D03*
%TD*%
D26*
%TO.C,A1*%
X84175000Y-50800000D03*
D27*
X84475000Y-53830000D03*
X89325000Y-53830000D03*
D26*
X89625000Y-50800000D03*
D28*
X77210000Y-50670000D03*
D29*
X77210000Y-53210000D03*
D30*
X77210000Y-55750000D03*
D29*
X77210000Y-58290000D03*
X77210000Y-60830000D03*
X77210000Y-63370000D03*
X77210000Y-65910000D03*
D30*
X77210000Y-68450000D03*
D29*
X77210000Y-70990000D03*
X77210000Y-73530000D03*
X77210000Y-76070000D03*
X77210000Y-78610000D03*
D30*
X77210000Y-81150000D03*
D29*
X77210000Y-83690000D03*
X77210000Y-86230000D03*
X77210000Y-88770000D03*
X77210000Y-91310000D03*
D30*
X77210000Y-93850000D03*
D29*
X77210000Y-96390000D03*
X77210000Y-98930000D03*
X96590000Y-98930000D03*
X96590000Y-96390000D03*
D28*
X96590000Y-93850000D03*
D29*
X96590000Y-91310000D03*
X96590000Y-88770000D03*
X96590000Y-86230000D03*
X96590000Y-83690000D03*
D28*
X96590000Y-81150000D03*
D29*
X96590000Y-78610000D03*
X96590000Y-76070000D03*
X96590000Y-73530000D03*
X96590000Y-70990000D03*
D28*
X96590000Y-68450000D03*
D29*
X96590000Y-65910000D03*
X96590000Y-63370000D03*
X96590000Y-60830000D03*
X96590000Y-58290000D03*
D28*
X96590000Y-55750000D03*
D29*
X96590000Y-53210000D03*
X96590000Y-50670000D03*
D31*
X84360000Y-99500000D03*
D32*
X86900000Y-98700000D03*
D31*
X89440000Y-99500000D03*
D33*
X86900000Y-53800000D03*
X87900000Y-50500000D03*
X85900000Y-50500000D03*
X84400000Y-57300000D03*
X84400000Y-59800000D03*
X84400000Y-62300000D03*
%TD*%
D20*
%TO.C,H1*%
X56600000Y-51600000D03*
%TD*%
D34*
%TO.C,C21*%
X107100000Y-56867500D03*
X107100000Y-51267500D03*
%TD*%
D13*
%TO.C,R3*%
X71000000Y-70712500D03*
X71000000Y-68887500D03*
%TD*%
D17*
%TO.C,J3*%
X128600000Y-96520000D03*
D18*
X128600000Y-93980000D03*
X128600000Y-91440000D03*
X128600000Y-88900000D03*
X128600000Y-86360000D03*
%TD*%
D21*
%TO.C,U5*%
X65300000Y-86500000D03*
D22*
X68175000Y-88405000D03*
X68175000Y-87135000D03*
X68175000Y-85865000D03*
X68175000Y-84595000D03*
X62425000Y-84595000D03*
X62425000Y-85865000D03*
X62425000Y-87135000D03*
X62425000Y-88405000D03*
D23*
X65950000Y-87800000D03*
X65950000Y-86500000D03*
X65950000Y-85200000D03*
X64650000Y-87800000D03*
X64650000Y-86500000D03*
X64650000Y-85200000D03*
%TD*%
D21*
%TO.C,U8*%
X65050000Y-107600000D03*
D22*
X67925000Y-109505000D03*
X67925000Y-108235000D03*
X67925000Y-106965000D03*
X67925000Y-105695000D03*
X62175000Y-105695000D03*
X62175000Y-106965000D03*
X62175000Y-108235000D03*
X62175000Y-109505000D03*
D23*
X65700000Y-108900000D03*
X65700000Y-107600000D03*
X65700000Y-106300000D03*
X64400000Y-108900000D03*
X64400000Y-107600000D03*
X64400000Y-106300000D03*
%TD*%
D13*
%TO.C,R2*%
X71100000Y-63512500D03*
X71100000Y-61687500D03*
%TD*%
D21*
%TO.C,U9*%
X65050000Y-114700000D03*
D22*
X67925000Y-116605000D03*
X67925000Y-115335000D03*
X67925000Y-114065000D03*
X67925000Y-112795000D03*
X62175000Y-112795000D03*
X62175000Y-114065000D03*
X62175000Y-115335000D03*
X62175000Y-116605000D03*
D23*
X65700000Y-116000000D03*
X65700000Y-114700000D03*
X65700000Y-113400000D03*
X64400000Y-116000000D03*
X64400000Y-114700000D03*
X64400000Y-113400000D03*
%TD*%
D21*
%TO.C,U4*%
X65200000Y-79500000D03*
D22*
X68075000Y-81405000D03*
X68075000Y-80135000D03*
X68075000Y-78865000D03*
X68075000Y-77595000D03*
X62325000Y-77595000D03*
X62325000Y-78865000D03*
X62325000Y-80135000D03*
X62325000Y-81405000D03*
D23*
X65850000Y-80800000D03*
X65850000Y-79500000D03*
X65850000Y-78200000D03*
X64550000Y-80800000D03*
X64550000Y-79500000D03*
X64550000Y-78200000D03*
%TD*%
D20*
%TO.C,H4*%
X128600000Y-123600000D03*
%TD*%
D17*
%TO.C,J6*%
X128700000Y-77780000D03*
D18*
X128700000Y-75240000D03*
X128700000Y-72700000D03*
X128700000Y-70160000D03*
%TD*%
D35*
%TO.C,J1*%
X120300000Y-54500000D03*
D20*
X115300000Y-54500000D03*
%TD*%
D36*
%TO.C,U11*%
X106520000Y-85960000D03*
X106520000Y-88500000D03*
X106520000Y-91040000D03*
X106520000Y-93580000D03*
X106520000Y-96120000D03*
X106520000Y-98660000D03*
X116680000Y-98660000D03*
X116680000Y-96120000D03*
X116680000Y-93580000D03*
X116680000Y-91040000D03*
X116680000Y-88500000D03*
X116680000Y-85960000D03*
%TD*%
%TO.C,U13*%
X56600000Y-65520000D03*
X56600000Y-68060000D03*
X56600000Y-70600000D03*
X56600000Y-73140000D03*
X56600000Y-75680000D03*
X56600000Y-78220000D03*
X56600000Y-80760000D03*
X56600000Y-83300000D03*
X56600000Y-85840000D03*
X56600000Y-88380000D03*
X56600000Y-90920000D03*
X56600000Y-93460000D03*
X56600000Y-96000000D03*
X56600000Y-98540000D03*
X56600000Y-101080000D03*
X56600000Y-103620000D03*
X56600000Y-106160000D03*
X56600000Y-108700000D03*
%TD*%
D17*
%TO.C,J4*%
X71000000Y-51600000D03*
D18*
X68460000Y-51600000D03*
X65920000Y-51600000D03*
X63380000Y-51600000D03*
%TD*%
D21*
%TO.C,U2*%
X65400000Y-65500000D03*
D22*
X68275000Y-67405000D03*
X68275000Y-66135000D03*
X68275000Y-64865000D03*
X68275000Y-63595000D03*
X62525000Y-63595000D03*
X62525000Y-64865000D03*
X62525000Y-66135000D03*
X62525000Y-67405000D03*
D23*
X66050000Y-66800000D03*
X66050000Y-65500000D03*
X66050000Y-64200000D03*
X64750000Y-66800000D03*
X64750000Y-65500000D03*
X64750000Y-64200000D03*
%TD*%
D13*
%TO.C,R1*%
X71100000Y-56612500D03*
X71100000Y-54787500D03*
%TD*%
M02*
