M48
; DRILL file KiCad 10.0.0-10.0.0~ubuntu24.04.1 date 2026-04-21T15:09:34
; FORMAT={-:-/ absolute / metric / decimal}
; #@! TF.CreationDate,2026-04-21T15:09:34+02:00
; #@! TF.GenerationSoftware,Kicad,Pcbnew,10.0.0-10.0.0~ubuntu24.04.1
; #@! TF.FileFunction,Plated,1,2,PTH
FMAT,2
METRIC
; #@! TA.AperFunction,Plated,PTH,ViaDrill
T1C0.300
; #@! TA.AperFunction,Plated,PTH,ComponentDrill
T2C0.330
; #@! TA.AperFunction,Plated,PTH,ComponentDrill
T3C0.800
; #@! TA.AperFunction,Plated,PTH,ComponentDrill
T4C1.000
; #@! TA.AperFunction,Plated,PTH,ComponentDrill
T5C1.300
%
G90
G05
T1
X57.6Y-111.8
X62.3Y-111.6
X62.55Y-83.35
X62.55Y-97.45
X62.6Y-90.5
X62.6Y-104.6
X62.65Y-76.35
X62.8Y-62.3
X62.9Y-69.6
X62.95Y-55.25
X63.0Y-111.3
X63.1Y-104.1
X63.3Y-83.1
X63.3Y-97.1
X63.5Y-76.1
X63.5Y-90.2
X63.6Y-69.1
X63.7Y-104.1
X63.7Y-111.3
X63.8Y-55.0
X63.8Y-62.1
X63.9Y-83.1
X63.9Y-97.1
X64.1Y-76.1
X64.1Y-90.2
X64.2Y-69.1
X64.3Y-104.1
X64.4Y-55.0
X64.4Y-62.1
X64.4Y-111.3
X64.5Y-83.1
X64.5Y-97.1
X64.5Y-118.6
X64.5Y-119.3
X64.5Y-119.9
X64.5Y-124.6
X64.5Y-125.2
X64.5Y-125.8
X64.7Y-76.1
X64.7Y-90.2
X64.8Y-69.1
X64.9Y-104.1
X65.0Y-55.0
X65.0Y-62.1
X65.1Y-83.1
X65.1Y-97.1
X65.1Y-111.3
X65.3Y-76.1
X65.3Y-90.2
X65.4Y-69.1
X65.5Y-104.1
X65.6Y-55.0
X65.6Y-62.1
X65.7Y-83.1
X65.7Y-97.1
X65.8Y-111.3
X65.9Y-76.1
X65.9Y-90.2
X66.0Y-69.1
X66.1Y-104.1
X66.2Y-55.0
X66.2Y-62.1
X66.3Y-83.1
X66.4Y-97.1
X66.4Y-111.3
X66.5Y-76.1
X66.5Y-90.2
X66.6Y-69.1
X66.8Y-55.0
X66.8Y-62.1
X69.2Y-54.8
X70.3Y-87.7
X70.5Y-80.9
X70.9Y-74.3
X71.5Y-79.9
X71.665Y-94.235
X71.735Y-101.235
X72.4Y-66.5
X72.4Y-72.8
X73.9Y-65.5
X73.9Y-72.5
X74.1Y-100.6
X75.6Y-101.65
X75.8Y-104.0
X80.5Y-55.75
X80.5Y-68.45
X80.5Y-78.6
X80.5Y-81.15
X80.5Y-83.69
X80.5Y-86.23
X80.5Y-88.77
X80.5Y-91.3
X80.5Y-93.8
X82.05Y-65.9
X82.5Y-78.6
X83.6Y-64.6
X86.9Y-96.6
X91.2Y-70.0
X91.3Y-72.0
X93.5Y-55.75
X93.5Y-78.6
X93.5Y-81.15
X93.5Y-93.85
X95.0Y-101.6
X98.0Y-102.5
X99.55Y-76.35
X99.6Y-66.1
X100.7Y-76.9
X100.8Y-69.6
X101.85Y-102.55
X101.9Y-78.1
X113.65Y-84.35
X124.2Y-96.1
X125.1Y-94.9
X125.8Y-100.4
X127.2Y-64.5
X129.6Y-64.5
T2
X64.4Y-106.3
X64.4Y-107.6
X64.4Y-108.9
X64.4Y-113.4
X64.4Y-114.7
X64.4Y-116.0
X64.45Y-99.3
X64.45Y-100.6
X64.45Y-101.9
X64.55Y-78.2
X64.55Y-79.5
X64.55Y-80.8
X64.55Y-92.3
X64.55Y-93.6
X64.55Y-94.9
X64.65Y-85.2
X64.65Y-86.5
X64.65Y-87.8
X64.7Y-71.3
X64.7Y-72.6
X64.7Y-73.9
X64.75Y-64.2
X64.75Y-65.5
X64.75Y-66.8
X64.85Y-57.2
X64.85Y-58.5
X64.85Y-59.8
X65.7Y-106.3
X65.7Y-107.6
X65.7Y-108.9
X65.7Y-113.4
X65.7Y-114.7
X65.7Y-116.0
X65.75Y-99.3
X65.75Y-100.6
X65.75Y-101.9
X65.85Y-78.2
X65.85Y-79.5
X65.85Y-80.8
X65.85Y-92.3
X65.85Y-93.6
X65.85Y-94.9
X65.95Y-85.2
X65.95Y-86.5
X65.95Y-87.8
X66.0Y-71.3
X66.0Y-72.6
X66.0Y-73.9
X66.05Y-64.2
X66.05Y-65.5
X66.05Y-66.8
X66.15Y-57.2
X66.15Y-58.5
X66.15Y-59.8
T3
X56.6Y-65.52
X56.6Y-68.06
X56.6Y-70.6
X56.6Y-73.14
X56.6Y-75.68
X56.6Y-78.22
X56.6Y-80.76
X56.6Y-83.3
X56.6Y-85.84
X56.6Y-88.38
X56.6Y-90.92
X56.6Y-93.46
X56.6Y-96.0
X56.6Y-98.54
X56.6Y-101.08
X56.6Y-103.62
X56.6Y-106.16
X56.6Y-108.7
X71.2Y-119.297
X71.2Y-124.297
X105.28Y-61.85
X105.28Y-80.35
X106.52Y-85.96
X106.52Y-88.5
X106.52Y-91.04
X106.52Y-93.58
X106.52Y-96.12
X106.52Y-98.66
X107.53Y-61.85
X107.53Y-80.35
X115.53Y-61.85
X115.53Y-80.35
X116.68Y-85.96
X116.68Y-88.5
X116.68Y-91.04
X116.68Y-93.58
X116.68Y-96.12
X116.68Y-98.66
X117.78Y-61.85
X117.78Y-80.35
T4
X63.38Y-51.6
X65.92Y-51.6
X68.46Y-51.6
X71.0Y-51.6
X78.4Y-105.7
X78.4Y-123.7
X117.4Y-105.7
X117.4Y-123.7
X126.157Y-105.12
X126.157Y-107.66
X126.157Y-110.2
X126.157Y-112.74
X126.157Y-115.28
X128.6Y-86.36
X128.6Y-88.9
X128.6Y-91.44
X128.6Y-93.98
X128.6Y-96.52
X128.697Y-105.12
X128.697Y-107.66
X128.697Y-110.2
X128.697Y-112.74
X128.697Y-115.28
X128.7Y-70.16
X128.7Y-72.7
X128.7Y-75.24
X128.7Y-77.78
T5
X115.3Y-54.5
X120.3Y-54.5
M30
