%TF.GenerationSoftware,KiCad,Pcbnew,10.0.0-10.0.0~ubuntu24.04.1*%
%TF.CreationDate,2026-04-20T00:13:39+02:00*%
%TF.ProjectId,att,6174742e-6b69-4636-9164-5f7063625858,rev?*%
%TF.SameCoordinates,Original*%
%TF.FileFunction,Legend,Bot*%
%TF.FilePolarity,Positive*%
%FSLAX46Y46*%
G04 Gerber Fmt 4.6, Leading zero omitted, Abs format (unit mm)*
G04 Created by KiCad (PCBNEW 10.0.0-10.0.0~ubuntu24.04.1) date 2026-04-20 00:13:39*
%MOMM*%
%LPD*%
G01*
G04 APERTURE LIST*
G04 Aperture macros list*
%AMRoundRect*
0 Rectangle with rounded corners*
0 $1 Rounding radius*
0 $2 $3 $4 $5 $6 $7 $8 $9 X,Y pos of 4 corners*
0 Add a 4 corners polygon primitive as box body*
4,1,4,$2,$3,$4,$5,$6,$7,$8,$9,$2,$3,0*
0 Add four circle primitives for the rounded corners*
1,1,$1+$1,$2,$3*
1,1,$1+$1,$4,$5*
1,1,$1+$1,$6,$7*
1,1,$1+$1,$8,$9*
0 Add four rect primitives between the rounded corners*
20,1,$1+$1,$2,$3,$4,$5,0*
20,1,$1+$1,$4,$5,$6,$7,0*
20,1,$1+$1,$6,$7,$8,$9,0*
20,1,$1+$1,$8,$9,$2,$3,0*%
G04 Aperture macros list end*
%ADD10RoundRect,0.381000X0.889000X0.889000X-0.889000X0.889000X-0.889000X-0.889000X0.889000X-0.889000X0*%
%ADD11R,1.700000X1.700000*%
%ADD12C,1.700000*%
%ADD13C,2.500000*%
%ADD14C,0.770000*%
%ADD15RoundRect,0.250000X1.000000X1.000000X-1.000000X1.000000X-1.000000X-1.000000X1.000000X-1.000000X0*%
%ADD16RoundRect,0.190500X-1.079500X-0.444500X1.079500X-0.444500X1.079500X0.444500X-1.079500X0.444500X0*%
%ADD17RoundRect,0.190500X-0.444500X1.079500X-0.444500X-1.079500X0.444500X-1.079500X0.444500X1.079500X0*%
G04 APERTURE END LIST*
%LPC*%
D10*
%TO.C,U12*%
X117500000Y-105800000D03*
X117500000Y-123800000D03*
X78500000Y-105800000D03*
X78500000Y-123800000D03*
%TD*%
D11*
%TO.C,J2*%
X128696641Y-115280000D03*
D12*
X126156641Y-115280000D03*
X128696641Y-112740000D03*
X126156641Y-112740000D03*
X128696641Y-110200000D03*
X126156641Y-110200000D03*
X128696641Y-107660000D03*
X126156641Y-107660000D03*
X128696641Y-105120000D03*
X126156641Y-105120000D03*
%TD*%
D13*
%TO.C,H3*%
X56600000Y-123500000D03*
%TD*%
D14*
%TO.C,U7*%
X65750000Y-101900000D03*
X65750000Y-100600000D03*
X65750000Y-99300000D03*
X64450000Y-101900000D03*
X64450000Y-100600000D03*
X64450000Y-99300000D03*
%TD*%
%TO.C,U3*%
X66000000Y-73900000D03*
X66000000Y-72600000D03*
X66000000Y-71300000D03*
X64700000Y-73900000D03*
X64700000Y-72600000D03*
X64700000Y-71300000D03*
%TD*%
D13*
%TO.C,H2*%
X128600000Y-51700000D03*
%TD*%
D14*
%TO.C,U6*%
X65850000Y-94900000D03*
X65850000Y-93600000D03*
X65850000Y-92300000D03*
X64550000Y-94900000D03*
X64550000Y-93600000D03*
X64550000Y-92300000D03*
%TD*%
%TO.C,U1*%
X66150000Y-59800000D03*
X66150000Y-58500000D03*
X66150000Y-57200000D03*
X64850000Y-59800000D03*
X64850000Y-58500000D03*
X64850000Y-57200000D03*
%TD*%
D11*
%TO.C,J5*%
X127530000Y-62470000D03*
D12*
X130070000Y-62470000D03*
X127530000Y-59930000D03*
X130070000Y-59930000D03*
%TD*%
D13*
%TO.C,H1*%
X56600000Y-51600000D03*
%TD*%
D11*
%TO.C,J3*%
X128600000Y-96520000D03*
D12*
X128600000Y-93980000D03*
X128600000Y-91440000D03*
X128600000Y-88900000D03*
X128600000Y-86360000D03*
%TD*%
D14*
%TO.C,U5*%
X65950000Y-87800000D03*
X65950000Y-86500000D03*
X65950000Y-85200000D03*
X64650000Y-87800000D03*
X64650000Y-86500000D03*
X64650000Y-85200000D03*
%TD*%
%TO.C,U8*%
X65700000Y-108900000D03*
X65700000Y-107600000D03*
X65700000Y-106300000D03*
X64400000Y-108900000D03*
X64400000Y-107600000D03*
X64400000Y-106300000D03*
%TD*%
%TO.C,U9*%
X65700000Y-116000000D03*
X65700000Y-114700000D03*
X65700000Y-113400000D03*
X64400000Y-116000000D03*
X64400000Y-114700000D03*
X64400000Y-113400000D03*
%TD*%
%TO.C,U4*%
X65850000Y-80800000D03*
X65850000Y-79500000D03*
X65850000Y-78200000D03*
X64550000Y-80800000D03*
X64550000Y-79500000D03*
X64550000Y-78200000D03*
%TD*%
D13*
%TO.C,H4*%
X128600000Y-123600000D03*
%TD*%
D11*
%TO.C,J6*%
X128700000Y-77780000D03*
D12*
X128700000Y-75240000D03*
X128700000Y-72700000D03*
X128700000Y-70160000D03*
%TD*%
D15*
%TO.C,J1*%
X120300000Y-54500000D03*
D13*
X115300000Y-54500000D03*
%TD*%
D16*
%TO.C,U11*%
X106520000Y-85960000D03*
X106520000Y-88500000D03*
X106520000Y-91040000D03*
X106520000Y-93580000D03*
X106520000Y-96120000D03*
X106520000Y-98660000D03*
X116680000Y-98660000D03*
X116680000Y-96120000D03*
X116680000Y-93580000D03*
X116680000Y-91040000D03*
X116680000Y-88500000D03*
X116680000Y-85960000D03*
%TD*%
%TO.C,U13*%
X56600000Y-65520000D03*
X56600000Y-68060000D03*
X56600000Y-70600000D03*
X56600000Y-73140000D03*
X56600000Y-75680000D03*
X56600000Y-78220000D03*
X56600000Y-80760000D03*
X56600000Y-83300000D03*
X56600000Y-85840000D03*
X56600000Y-88380000D03*
X56600000Y-90920000D03*
X56600000Y-93460000D03*
X56600000Y-96000000D03*
X56600000Y-98540000D03*
X56600000Y-101080000D03*
X56600000Y-103620000D03*
X56600000Y-106160000D03*
X56600000Y-108700000D03*
%TD*%
D11*
%TO.C,J4*%
X70110000Y-51600000D03*
D12*
X67570000Y-51600000D03*
X65030000Y-51600000D03*
X62490000Y-51600000D03*
%TD*%
D17*
%TO.C,U10*%
X117780000Y-80350000D03*
X115530000Y-80350000D03*
X107530000Y-61850000D03*
X105280000Y-61850000D03*
X117780000Y-61850000D03*
X115530000Y-61850000D03*
X107530000Y-80350000D03*
X105280000Y-80350000D03*
%TD*%
D14*
%TO.C,U2*%
X66050000Y-66800000D03*
X66050000Y-65500000D03*
X66050000Y-64200000D03*
X64750000Y-66800000D03*
X64750000Y-65500000D03*
X64750000Y-64200000D03*
%TD*%
%LPD*%
M02*
