%TF.GenerationSoftware,KiCad,Pcbnew,10.0.0-10.0.0~ubuntu24.04.1*%
%TF.CreationDate,2026-04-20T21:27:46+02:00*%
%TF.ProjectId,att,6174742e-6b69-4636-9164-5f7063625858,rev?*%
%TF.SameCoordinates,Original*%
%TF.FileFunction,Copper,L1,Top*%
%TF.FilePolarity,Positive*%
%FSLAX46Y46*%
G04 Gerber Fmt 4.6, Leading zero omitted, Abs format (unit mm)*
G04 Created by KiCad (PCBNEW 10.0.0-10.0.0~ubuntu24.04.1) date 2026-04-20 21:27:46*
%MOMM*%
%LPD*%
G01*
G04 APERTURE LIST*
G04 Aperture macros list*
%AMRoundRect*
0 Rectangle with rounded corners*
0 $1 Rounding radius*
0 $2 $3 $4 $5 $6 $7 $8 $9 X,Y pos of 4 corners*
0 Add a 4 corners polygon primitive as box body*
4,1,4,$2,$3,$4,$5,$6,$7,$8,$9,$2,$3,0*
0 Add four circle primitives for the rounded corners*
1,1,$1+$1,$2,$3*
1,1,$1+$1,$4,$5*
1,1,$1+$1,$6,$7*
1,1,$1+$1,$8,$9*
0 Add four rect primitives between the rounded corners*
20,1,$1+$1,$2,$3,$4,$5,0*
20,1,$1+$1,$4,$5,$6,$7,0*
20,1,$1+$1,$6,$7,$8,$9,0*
20,1,$1+$1,$8,$9,$2,$3,0*%
%AMFreePoly0*
4,1,37,1.600000,0.796148,1.678414,0.796148,1.832228,0.765552,1.977117,0.705537,2.107515,0.618408,2.218408,0.507515,2.305537,0.377117,2.365552,0.232228,2.396148,0.078414,2.396148,-0.078414,2.365552,-0.232228,2.305537,-0.377117,2.218408,-0.507515,2.107515,-0.618408,1.977117,-0.705537,1.832228,-0.765552,1.678414,-0.796148,1.600000,-0.796148,1.600000,-0.800000,-0.600000,-0.800000,
-0.603843,-0.796157,-0.639018,-0.796157,-0.711114,-0.766294,-0.766294,-0.711114,-0.796157,-0.639018,-0.796157,-0.603843,-0.800000,-0.600000,-0.800000,0.600000,-0.796157,0.603843,-0.796157,0.639018,-0.766294,0.711114,-0.711114,0.766294,-0.639018,0.796157,-0.603843,0.796157,-0.600000,0.800000,1.600000,0.800000,1.600000,0.796148,1.600000,0.796148,$1*%
%AMFreePoly1*
4,1,37,0.800000,0.796148,0.878414,0.796148,1.032228,0.765552,1.177117,0.705537,1.307515,0.618408,1.418408,0.507515,1.505537,0.377117,1.565552,0.232228,1.596148,0.078414,1.596148,-0.078414,1.565552,-0.232228,1.505537,-0.377117,1.418408,-0.507515,1.307515,-0.618408,1.177117,-0.705537,1.032228,-0.765552,0.878414,-0.796148,0.800000,-0.796148,0.800000,-0.800000,-1.400000,-0.800000,
-1.403843,-0.796157,-1.439018,-0.796157,-1.511114,-0.766294,-1.566294,-0.711114,-1.596157,-0.639018,-1.596157,-0.603843,-1.600000,-0.600000,-1.600000,0.600000,-1.596157,0.603843,-1.596157,0.639018,-1.566294,0.711114,-1.511114,0.766294,-1.439018,0.796157,-1.403843,0.796157,-1.400000,0.800000,0.800000,0.800000,0.800000,0.796148,0.800000,0.796148,$1*%
%AMFreePoly2*
4,1,37,1.403843,0.796157,1.439018,0.796157,1.511114,0.766294,1.566294,0.711114,1.596157,0.639018,1.596157,0.603843,1.600000,0.600000,1.600000,-0.600000,1.596157,-0.603843,1.596157,-0.639018,1.566294,-0.711114,1.511114,-0.766294,1.439018,-0.796157,1.403843,-0.796157,1.400000,-0.800000,-0.800000,-0.800000,-0.800000,-0.796148,-0.878414,-0.796148,-1.032228,-0.765552,-1.177117,-0.705537,
-1.307515,-0.618408,-1.418408,-0.507515,-1.505537,-0.377117,-1.565552,-0.232228,-1.596148,-0.078414,-1.596148,0.078414,-1.565552,0.232228,-1.505537,0.377117,-1.418408,0.507515,-1.307515,0.618408,-1.177117,0.705537,-1.032228,0.765552,-0.878414,0.796148,-0.800000,0.796148,-0.800000,0.800000,1.400000,0.800000,1.403843,0.796157,1.403843,0.796157,$1*%
G04 Aperture macros list end*
%TA.AperFunction,SMDPad,CuDef*%
%ADD10RoundRect,0.300000X-0.450000X-0.450000X0.450000X-0.450000X0.450000X0.450000X-0.450000X0.450000X0*%
%TD*%
%TA.AperFunction,SMDPad,CuDef*%
%ADD11RoundRect,0.800000X0.000010X-0.800000X0.000010X0.800000X-0.000010X0.800000X-0.000010X-0.800000X0*%
%TD*%
%TA.AperFunction,SMDPad,CuDef*%
%ADD12FreePoly0,270.000000*%
%TD*%
%TA.AperFunction,SMDPad,CuDef*%
%ADD13RoundRect,0.800000X-0.800000X-0.000010X0.800000X-0.000010X0.800000X0.000010X-0.800000X0.000010X0*%
%TD*%
%TA.AperFunction,SMDPad,CuDef*%
%ADD14FreePoly1,0.000000*%
%TD*%
%TA.AperFunction,SMDPad,CuDef*%
%ADD15FreePoly2,0.000000*%
%TD*%
%TA.AperFunction,SMDPad,CuDef*%
%ADD16O,1.100000X1.800000*%
%TD*%
%TA.AperFunction,SMDPad,CuDef*%
%ADD17O,1.050000X1.450000*%
%TD*%
%TA.AperFunction,SMDPad,CuDef*%
%ADD18RoundRect,0.250000X-0.475000X0.337500X-0.475000X-0.337500X0.475000X-0.337500X0.475000X0.337500X0*%
%TD*%
%TA.AperFunction,SMDPad,CuDef*%
%ADD19RoundRect,0.250000X0.450000X-0.262500X0.450000X0.262500X-0.450000X0.262500X-0.450000X-0.262500X0*%
%TD*%
%TA.AperFunction,SMDPad,CuDef*%
%ADD20RoundRect,0.250000X0.350000X0.450000X-0.350000X0.450000X-0.350000X-0.450000X0.350000X-0.450000X0*%
%TD*%
%TA.AperFunction,SMDPad,CuDef*%
%ADD21RoundRect,0.250000X-0.350000X-0.450000X0.350000X-0.450000X0.350000X0.450000X-0.350000X0.450000X0*%
%TD*%
%TA.AperFunction,SMDPad,CuDef*%
%ADD22RoundRect,0.250000X-0.337500X-0.475000X0.337500X-0.475000X0.337500X0.475000X-0.337500X0.475000X0*%
%TD*%
%TA.AperFunction,SMDPad,CuDef*%
%ADD23RoundRect,0.250000X0.337500X0.475000X-0.337500X0.475000X-0.337500X-0.475000X0.337500X-0.475000X0*%
%TD*%
%TA.AperFunction,ComponentPad*%
%ADD24R,1.700000X1.700000*%
%TD*%
%TA.AperFunction,ComponentPad*%
%ADD25C,1.700000*%
%TD*%
%TA.AperFunction,ComponentPad*%
%ADD26RoundRect,0.381000X0.889000X0.889000X-0.889000X0.889000X-0.889000X-0.889000X0.889000X-0.889000X0*%
%TD*%
%TA.AperFunction,SMDPad,CuDef*%
%ADD27RoundRect,0.250000X-0.450000X0.262500X-0.450000X-0.262500X0.450000X-0.262500X0.450000X0.262500X0*%
%TD*%
%TA.AperFunction,SMDPad,CuDef*%
%ADD28R,2.200000X0.500000*%
%TD*%
%TA.AperFunction,ComponentPad*%
%ADD29C,0.630000*%
%TD*%
%TA.AperFunction,SMDPad,CuDef*%
%ADD30R,2.950000X4.900000*%
%TD*%
%TA.AperFunction,SMDPad,CuDef*%
%ADD31RoundRect,0.250000X0.475000X-0.337500X0.475000X0.337500X-0.475000X0.337500X-0.475000X-0.337500X0*%
%TD*%
%TA.AperFunction,ComponentPad*%
%ADD32RoundRect,0.250000X-0.550000X0.550000X-0.550000X-0.550000X0.550000X-0.550000X0.550000X0.550000X0*%
%TD*%
%TA.AperFunction,ComponentPad*%
%ADD33C,1.600000*%
%TD*%
%TA.AperFunction,SMDPad,CuDef*%
%ADD34RoundRect,0.250000X-0.450000X0.350000X-0.450000X-0.350000X0.450000X-0.350000X0.450000X0.350000X0*%
%TD*%
%TA.AperFunction,SMDPad,CuDef*%
%ADD35RoundRect,0.250000X0.450000X-0.350000X0.450000X0.350000X-0.450000X0.350000X-0.450000X-0.350000X0*%
%TD*%
%TA.AperFunction,SMDPad,CuDef*%
%ADD36RoundRect,0.250000X0.550000X-1.500000X0.550000X1.500000X-0.550000X1.500000X-0.550000X-1.500000X0*%
%TD*%
%TA.AperFunction,ComponentPad*%
%ADD37RoundRect,0.250000X1.000000X1.000000X-1.000000X1.000000X-1.000000X-1.000000X1.000000X-1.000000X0*%
%TD*%
%TA.AperFunction,ComponentPad*%
%ADD38C,2.500000*%
%TD*%
%TA.AperFunction,ComponentPad*%
%ADD39RoundRect,0.190500X-1.079500X-0.444500X1.079500X-0.444500X1.079500X0.444500X-1.079500X0.444500X0*%
%TD*%
%TA.AperFunction,ComponentPad*%
%ADD40RoundRect,0.190500X-0.444500X1.079500X-0.444500X-1.079500X0.444500X-1.079500X0.444500X1.079500X0*%
%TD*%
%TA.AperFunction,ViaPad*%
%ADD41C,0.600000*%
%TD*%
%TA.AperFunction,Conductor*%
%ADD42C,0.200000*%
%TD*%
%TA.AperFunction,Conductor*%
%ADD43C,1.000000*%
%TD*%
%TA.AperFunction,Conductor*%
%ADD44C,0.500000*%
%TD*%
%TA.AperFunction,Conductor*%
%ADD45C,2.000000*%
%TD*%
%TA.AperFunction,Conductor*%
%ADD46C,0.650000*%
%TD*%
%TA.AperFunction,Conductor*%
%ADD47C,0.700000*%
%TD*%
%TA.AperFunction,Conductor*%
%ADD48C,0.300000*%
%TD*%
G04 APERTURE END LIST*
D10*
%TO.P,A1,TP6,~{BOOTSEL}_TP6*%
%TO.N,unconnected-(A1-~{BOOTSEL}-PadTP6)*%
X84400000Y-62300000D03*
%TO.P,A1,TP5,LED_OUT_TP5*%
%TO.N,unconnected-(A1-LED_OUT-PadTP5)*%
X84400000Y-59800000D03*
%TO.P,A1,TP4,~{SMPS_PS}_TP4*%
%TO.N,unconnected-(A1-~{SMPS_PS}-PadTP4)*%
X84400000Y-57300000D03*
%TO.P,A1,TP3,USB_DP_TP3*%
%TO.N,unconnected-(A1-USB_DP-PadTP3)*%
X85900000Y-50500000D03*
%TO.P,A1,TP2,USB_DM_TP2*%
%TO.N,unconnected-(A1-USB_DM-PadTP2)*%
X87900000Y-50500000D03*
%TO.P,A1,TP1,USB_GND_TP1*%
%TO.N,unconnected-(A1-USB_GND-PadTP1)*%
X86900000Y-53800000D03*
D11*
%TO.P,A1,D3,SWDIO_D3*%
%TO.N,unconnected-(A1-SWDIO-PadD3)*%
X89440000Y-99500000D03*
D12*
%TO.P,A1,D2,GND_D2*%
%TO.N,GND*%
X86900000Y-98700000D03*
D11*
%TO.P,A1,D1,SWCLK_D1*%
%TO.N,unconnected-(A1-SWCLK-PadD1)*%
X84360000Y-99500000D03*
D13*
%TO.P,A1,40,VBUS_40*%
%TO.N,unconnected-(A1-VBUS-Pad40)*%
X96590000Y-50670000D03*
%TO.P,A1,39,VSYS_39*%
%TO.N,+5V*%
X96590000Y-53210000D03*
D14*
%TO.P,A1,38,GND_38*%
%TO.N,GND*%
X96590000Y-55750000D03*
D13*
%TO.P,A1,37,3V3_EN_37*%
%TO.N,unconnected-(A1-3V3_EN-Pad37)*%
X96590000Y-58290000D03*
%TO.P,A1,36,3V3_36*%
%TO.N,+3.3V*%
X96590000Y-60830000D03*
%TO.P,A1,35,ADC_VREF_35*%
%TO.N,unconnected-(A1-ADC_VREF-Pad35)*%
X96590000Y-63370000D03*
%TO.P,A1,34,GPIO28_ADC2_34*%
%TO.N,Net-(A1-GPIO28_ADC2)*%
X96590000Y-65910000D03*
D14*
%TO.P,A1,33,AGND_33*%
%TO.N,unconnected-(A1-AGND-Pad33)*%
X96590000Y-68450000D03*
D13*
%TO.P,A1,32,GPIO27_ADC1_32*%
%TO.N,Net-(A1-GPIO27_ADC1)*%
X96590000Y-70990000D03*
%TO.P,A1,31,GPIO26_ADC0_31*%
%TO.N,Net-(A1-GPIO26_ADC0)*%
X96590000Y-73530000D03*
%TO.P,A1,30,RUN_30*%
%TO.N,unconnected-(A1-RUN-Pad30)*%
X96590000Y-76070000D03*
%TO.P,A1,29,GPIO22_29*%
%TO.N,Net-(A1-GPIO22)*%
X96590000Y-78610000D03*
D14*
%TO.P,A1,28,GND_28*%
%TO.N,GND*%
X96590000Y-81150000D03*
D13*
%TO.P,A1,27,GPIO21_27*%
%TO.N,/d_CLK*%
X96590000Y-83690000D03*
%TO.P,A1,26,GPIO20_26*%
%TO.N,/D_DT*%
X96590000Y-86230000D03*
%TO.P,A1,25,GPIO19_25*%
%TO.N,/D_SW*%
X96590000Y-88770000D03*
%TO.P,A1,24,GPIO18_24*%
%TO.N,Net-(A1-GPIO18)*%
X96590000Y-91310000D03*
D14*
%TO.P,A1,23,GND_23*%
%TO.N,GND*%
X96590000Y-93850000D03*
D13*
%TO.P,A1,22,GPIO17_22*%
%TO.N,Net-(A1-GPIO17)*%
X96590000Y-96390000D03*
%TO.P,A1,21,GPIO16_21*%
%TO.N,Net-(A1-GPIO16)*%
X96590000Y-98930000D03*
%TO.P,A1,20,GPIO15_20*%
%TO.N,Net-(A1-GPIO15)*%
X77210000Y-98930000D03*
%TO.P,A1,19,GPIO14_19*%
%TO.N,Net-(A1-GPIO14)*%
X77210000Y-96390000D03*
D15*
%TO.P,A1,18,GND_18*%
%TO.N,GND*%
X77210000Y-93850000D03*
D13*
%TO.P,A1,17,GPIO13_17*%
%TO.N,Net-(A1-GPIO13)*%
X77210000Y-91310000D03*
%TO.P,A1,16,GPIO12_16*%
%TO.N,Net-(A1-GPIO12)*%
X77210000Y-88770000D03*
%TO.P,A1,15,GPIO11_15*%
%TO.N,Net-(A1-GPIO11)*%
X77210000Y-86230000D03*
%TO.P,A1,14,GPIO10_14*%
%TO.N,Net-(A1-GPIO10)*%
X77210000Y-83690000D03*
D15*
%TO.P,A1,13,GND_13*%
%TO.N,GND*%
X77210000Y-81150000D03*
D13*
%TO.P,A1,12,GPIO9_12*%
%TO.N,Net-(A1-GPIO9)*%
X77210000Y-78610000D03*
%TO.P,A1,11,GPIO8_11*%
%TO.N,Net-(A1-GPIO8)*%
X77210000Y-76070000D03*
%TO.P,A1,10,GPIO7_10*%
%TO.N,Net-(A1-GPIO7)*%
X77210000Y-73530000D03*
%TO.P,A1,9,GPIO6_9*%
%TO.N,Net-(A1-GPIO6)*%
X77210000Y-70990000D03*
D15*
%TO.P,A1,8,GND_8*%
%TO.N,GND*%
X77210000Y-68450000D03*
D13*
%TO.P,A1,7,GPIO5_7*%
%TO.N,/Disp_SCL*%
X77210000Y-65910000D03*
%TO.P,A1,6,GPIO4_6*%
%TO.N,/D_SDA*%
X77210000Y-63370000D03*
%TO.P,A1,5,GPIO3_5*%
%TO.N,Net-(A1-GPIO3)*%
X77210000Y-60830000D03*
%TO.P,A1,4,GPIO2_4*%
%TO.N,Net-(A1-GPIO2)*%
X77210000Y-58290000D03*
D15*
%TO.P,A1,3,GND_3*%
%TO.N,GND*%
X77210000Y-55750000D03*
D13*
%TO.P,A1,2,GPIO1_2*%
%TO.N,/RX*%
X77210000Y-53210000D03*
D14*
%TO.P,A1,1,GPIO0_1*%
%TO.N,/TX*%
X77210000Y-50670000D03*
D16*
%TO.P,A1,*%
%TO.N,*%
X89625000Y-50800000D03*
D17*
X89325000Y-53830000D03*
X84475000Y-53830000D03*
D16*
X84175000Y-50800000D03*
%TD*%
D18*
%TO.P,C13,1*%
%TO.N,GND*%
X100800000Y-71362500D03*
%TO.P,C13,2*%
%TO.N,Net-(A1-GPIO26_ADC0)*%
X100800000Y-73437500D03*
%TD*%
D19*
%TO.P,R2,2*%
%TO.N,GND*%
X71100000Y-61687500D03*
%TO.P,R2,1*%
%TO.N,Net-(U2-ILIM)*%
X71100000Y-63512500D03*
%TD*%
D20*
%TO.P,R11,1*%
%TO.N,GND*%
X129800000Y-64800000D03*
%TO.P,R11,2*%
%TO.N,Net-(A1-GPIO26_ADC0)*%
X127800000Y-64800000D03*
%TD*%
D21*
%TO.P,R10,1*%
%TO.N,Net-(A1-GPIO26_ADC0)*%
X127800000Y-61400000D03*
%TO.P,R10,2*%
%TO.N,+3.3V*%
X129800000Y-61400000D03*
%TD*%
D22*
%TO.P,C4,1*%
%TO.N,GND*%
X103730000Y-116710000D03*
%TO.P,C4,2*%
%TO.N,Net-(U4-ILIM)*%
X105805000Y-116710000D03*
%TD*%
D23*
%TO.P,C3,1*%
%TO.N,Net-(U3-ILIM)*%
X105600000Y-113700000D03*
%TO.P,C3,2*%
%TO.N,GND*%
X103525000Y-113700000D03*
%TD*%
D22*
%TO.P,C2,1*%
%TO.N,GND*%
X103730000Y-110690000D03*
%TO.P,C2,2*%
%TO.N,Net-(U2-ILIM)*%
X105805000Y-110690000D03*
%TD*%
%TO.P,C1,1*%
%TO.N,GND*%
X103730000Y-107680000D03*
%TO.P,C1,2*%
%TO.N,Net-(U1-ILIM)*%
X105805000Y-107680000D03*
%TD*%
D19*
%TO.P,R1,1*%
%TO.N,Net-(U1-ILIM)*%
X71100000Y-56612500D03*
%TO.P,R1,2*%
%TO.N,GND*%
X71100000Y-54787500D03*
%TD*%
D24*
%TO.P,J2,1,Pin_1_1*%
%TO.N,/40dBa*%
X128696641Y-115280000D03*
D25*
%TO.P,J2,2,Pin_10_2*%
%TO.N,+15V-24V*%
X126156641Y-115280000D03*
%TO.P,J2,3,Pin_2_3*%
%TO.N,/40dBb*%
X128696641Y-112740000D03*
%TO.P,J2,4,Pin_9_4*%
%TO.N,/20dB*%
X126156641Y-112740000D03*
%TO.P,J2,5,Pin_3_5*%
%TO.N,unconnected-(J2-Pin_3-Pad5)*%
X128696641Y-110200000D03*
%TO.P,J2,6,Pin_8_6*%
%TO.N,unconnected-(J2-Pin_8-Pad6)*%
X126156641Y-110200000D03*
%TO.P,J2,7,Pin_4_7*%
%TO.N,GND*%
X128696641Y-107660000D03*
%TO.P,J2,8,Pin_7_8*%
X126156641Y-107660000D03*
%TO.P,J2,9,Pin_5_9*%
%TO.N,unconnected-(J2-Pin_5-Pad9)*%
X128696641Y-105120000D03*
%TO.P,J2,10,Pin_6_10*%
%TO.N,/10dB*%
X126156641Y-105120000D03*
%TD*%
D26*
%TO.P,U12,1,GND_1*%
%TO.N,GND*%
X78400000Y-123700000D03*
%TO.P,U12,2,24V_2*%
%TO.N,+15V-24V*%
X78400000Y-105700000D03*
%TO.P,U12,3,GND_3*%
%TO.N,GND*%
X117400000Y-123700000D03*
%TO.P,U12,4,12V_4*%
%TO.N,Net-(J1-Pin_1)*%
X117400000Y-105700000D03*
%TD*%
D27*
%TO.P,C1,1*%
%TO.N,GND*%
X73700000Y-54687500D03*
%TO.P,C1,2*%
%TO.N,Net-(U1-ILIM)*%
X73700000Y-56512500D03*
%TD*%
D19*
%TO.P,R4,1*%
%TO.N,Net-(U4-ILIM)*%
X71500000Y-77712500D03*
%TO.P,R4,2*%
%TO.N,GND*%
X71500000Y-75887500D03*
%TD*%
D28*
%TO.P,U7,1,GND_1*%
%TO.N,GND*%
X67975000Y-102505000D03*
%TO.P,U7,2,IN2_2*%
%TO.N,Net-(A1-GPIO17)*%
X67975000Y-101235000D03*
%TO.P,U7,3,IN1_3*%
%TO.N,Net-(A1-GPIO16)*%
X67975000Y-99965000D03*
%TO.P,U7,4,ILIM_4*%
%TO.N,Net-(U7-ILIM)*%
X67975000Y-98695000D03*
%TO.P,U7,5,VM_5*%
%TO.N,+15V-24V*%
X62225000Y-98695000D03*
%TO.P,U7,6,OUT1_6*%
%TO.N,Net-(U13G-B7a)*%
X62225000Y-99965000D03*
%TO.P,U7,7,GND_7*%
%TO.N,GND*%
X62225000Y-101235000D03*
%TO.P,U7,8,OUT2_8*%
%TO.N,Net-(U13G-B7b)*%
X62225000Y-102505000D03*
D29*
%TO.P,U7,9,GND_9*%
%TO.N,GND*%
X65750000Y-101900000D03*
X65750000Y-100600000D03*
X65750000Y-99300000D03*
D30*
X65100000Y-100600000D03*
D29*
X64450000Y-101900000D03*
X64450000Y-100600000D03*
X64450000Y-99300000D03*
%TD*%
D28*
%TO.P,U3,1,GND_1*%
%TO.N,GND*%
X68225000Y-74505000D03*
%TO.P,U3,2,IN2_2*%
%TO.N,Net-(A1-GPIO9)*%
X68225000Y-73235000D03*
%TO.P,U3,3,IN1_3*%
%TO.N,Net-(A1-GPIO8)*%
X68225000Y-71965000D03*
%TO.P,U3,4,ILIM_4*%
%TO.N,Net-(U3-ILIM)*%
X68225000Y-70695000D03*
%TO.P,U3,5,VM_5*%
%TO.N,+15V-24V*%
X62475000Y-70695000D03*
%TO.P,U3,6,OUT1_6*%
%TO.N,Net-(U13C-B3a)*%
X62475000Y-71965000D03*
%TO.P,U3,7,GND_7*%
%TO.N,GND*%
X62475000Y-73235000D03*
%TO.P,U3,8,OUT2_8*%
%TO.N,Net-(U13C-B3b)*%
X62475000Y-74505000D03*
D29*
%TO.P,U3,9,GND_9*%
%TO.N,GND*%
X66000000Y-73900000D03*
X66000000Y-72600000D03*
X66000000Y-71300000D03*
D30*
X65350000Y-72600000D03*
D29*
X64700000Y-73900000D03*
X64700000Y-72600000D03*
X64700000Y-71300000D03*
%TD*%
D28*
%TO.P,U6,1,GND_1*%
%TO.N,GND*%
X68075000Y-95505000D03*
%TO.P,U6,2,IN2_2*%
%TO.N,Net-(A1-GPIO15)*%
X68075000Y-94235000D03*
%TO.P,U6,3,IN1_3*%
%TO.N,Net-(A1-GPIO14)*%
X68075000Y-92965000D03*
%TO.P,U6,4,ILIM_4*%
%TO.N,Net-(U6-ILIM)*%
X68075000Y-91695000D03*
%TO.P,U6,5,VM_5*%
%TO.N,+15V-24V*%
X62325000Y-91695000D03*
%TO.P,U6,6,OUT1_6*%
%TO.N,Net-(U13F-B6a)*%
X62325000Y-92965000D03*
%TO.P,U6,7,GND_7*%
%TO.N,GND*%
X62325000Y-94235000D03*
%TO.P,U6,8,OUT2_8*%
%TO.N,Net-(U13F-B6b)*%
X62325000Y-95505000D03*
D29*
%TO.P,U6,9,GND_9*%
%TO.N,GND*%
X65850000Y-94900000D03*
X65850000Y-93600000D03*
X65850000Y-92300000D03*
D30*
X65200000Y-93600000D03*
D29*
X64550000Y-94900000D03*
X64550000Y-93600000D03*
X64550000Y-92300000D03*
%TD*%
D28*
%TO.P,U1,1,GND_1*%
%TO.N,GND*%
X68375000Y-60405000D03*
%TO.P,U1,2,IN2_2*%
%TO.N,Net-(A1-GPIO3)*%
X68375000Y-59135000D03*
%TO.P,U1,3,IN1_3*%
%TO.N,Net-(A1-GPIO2)*%
X68375000Y-57865000D03*
%TO.P,U1,4,ILIM_4*%
%TO.N,Net-(U1-ILIM)*%
X68375000Y-56595000D03*
%TO.P,U1,5,VM_5*%
%TO.N,+15V-24V*%
X62625000Y-56595000D03*
%TO.P,U1,6,OUT1_6*%
%TO.N,Net-(U1-OUT1)*%
X62625000Y-57865000D03*
%TO.P,U1,7,GND_7*%
%TO.N,GND*%
X62625000Y-59135000D03*
%TO.P,U1,8,OUT2_8*%
%TO.N,Net-(U1-OUT2)*%
X62625000Y-60405000D03*
D29*
%TO.P,U1,9,GND_9*%
%TO.N,GND*%
X66150000Y-59800000D03*
X66150000Y-58500000D03*
X66150000Y-57200000D03*
D30*
X65500000Y-58500000D03*
D29*
X64850000Y-59800000D03*
X64850000Y-58500000D03*
X64850000Y-57200000D03*
%TD*%
D31*
%TO.P,C6,1*%
%TO.N,Net-(U6-ILIM)*%
X73700000Y-91637500D03*
%TO.P,C6,2*%
%TO.N,GND*%
X73700000Y-89562500D03*
%TD*%
D27*
%TO.P,C4,1*%
%TO.N,GND*%
X73800000Y-75887500D03*
%TO.P,C4,2*%
%TO.N,Net-(U4-ILIM)*%
X73800000Y-77712500D03*
%TD*%
D32*
%TO.P,C10,1*%
%TO.N,+15V-24V*%
X71200000Y-119297349D03*
D33*
%TO.P,C10,2*%
%TO.N,GND*%
X71200000Y-124297349D03*
%TD*%
D34*
%TO.P,R5,1*%
%TO.N,GND*%
X71200000Y-82600000D03*
%TO.P,R5,2*%
%TO.N,Net-(U5-ILIM)*%
X71200000Y-84600000D03*
%TD*%
D35*
%TO.P,R7,1*%
%TO.N,Net-(U7-ILIM)*%
X71100000Y-98800000D03*
%TO.P,R7,2*%
%TO.N,GND*%
X71100000Y-96800000D03*
%TD*%
D18*
%TO.P,C5,1*%
%TO.N,GND*%
X73600000Y-82562500D03*
%TO.P,C5,2*%
%TO.N,Net-(U5-ILIM)*%
X73600000Y-84637500D03*
%TD*%
D27*
%TO.P,C2,1*%
%TO.N,GND*%
X73600000Y-61687500D03*
%TO.P,C2,2*%
%TO.N,Net-(U2-ILIM)*%
X73600000Y-63512500D03*
%TD*%
D36*
%TO.P,C21,1*%
%TO.N,Net-(J1-Pin_1)*%
X107100000Y-56867500D03*
%TO.P,C21,2*%
%TO.N,GND*%
X107100000Y-51267500D03*
%TD*%
D19*
%TO.P,R3,1*%
%TO.N,Net-(U3-ILIM)*%
X71300000Y-70712500D03*
%TO.P,R3,2*%
%TO.N,GND*%
X71300000Y-68887500D03*
%TD*%
D24*
%TO.P,J3,1,Pin_1_1*%
%TO.N,GND*%
X128600000Y-96520000D03*
D25*
%TO.P,J3,2,Pin_2_2*%
%TO.N,+3.3V*%
X128600000Y-93980000D03*
%TO.P,J3,3,Pin_3_3*%
%TO.N,/D_SW*%
X128600000Y-91440000D03*
%TO.P,J3,4,Pin_4_4*%
%TO.N,/D_DT*%
X128600000Y-88900000D03*
%TO.P,J3,5,Pin_5_5*%
%TO.N,/d_CLK*%
X128600000Y-86360000D03*
%TD*%
D28*
%TO.P,U5,1,GND_1*%
%TO.N,GND*%
X68175000Y-88405000D03*
%TO.P,U5,2,IN2_2*%
%TO.N,Net-(A1-GPIO13)*%
X68175000Y-87135000D03*
%TO.P,U5,3,IN1_3*%
%TO.N,Net-(A1-GPIO12)*%
X68175000Y-85865000D03*
%TO.P,U5,4,ILIM_4*%
%TO.N,Net-(U5-ILIM)*%
X68175000Y-84595000D03*
%TO.P,U5,5,VM_5*%
%TO.N,+15V-24V*%
X62425000Y-84595000D03*
%TO.P,U5,6,OUT1_6*%
%TO.N,Net-(U13E-B5a)*%
X62425000Y-85865000D03*
%TO.P,U5,7,GND_7*%
%TO.N,GND*%
X62425000Y-87135000D03*
%TO.P,U5,8,OUT2_8*%
%TO.N,Net-(U13E-B5b)*%
X62425000Y-88405000D03*
D29*
%TO.P,U5,9,GND_9*%
%TO.N,GND*%
X65950000Y-87800000D03*
X65950000Y-86500000D03*
X65950000Y-85200000D03*
D30*
X65300000Y-86500000D03*
D29*
X64650000Y-87800000D03*
X64650000Y-86500000D03*
X64650000Y-85200000D03*
%TD*%
D28*
%TO.P,U8,1,GND_1*%
%TO.N,GND*%
X67925000Y-109505000D03*
%TO.P,U8,2,IN2_2*%
%TO.N,Net-(A1-GPIO22)*%
X67925000Y-108235000D03*
%TO.P,U8,3,IN1_3*%
%TO.N,Net-(A1-GPIO18)*%
X67925000Y-106965000D03*
%TO.P,U8,4,ILIM_4*%
%TO.N,Net-(U8-ILIM)*%
X67925000Y-105695000D03*
%TO.P,U8,5,VM_5*%
%TO.N,+15V-24V*%
X62175000Y-105695000D03*
%TO.P,U8,6,OUT1_6*%
%TO.N,Net-(U13H-B8a)*%
X62175000Y-106965000D03*
%TO.P,U8,7,GND_7*%
%TO.N,GND*%
X62175000Y-108235000D03*
%TO.P,U8,8,OUT2_8*%
%TO.N,Net-(U13H-B8b)*%
X62175000Y-109505000D03*
D29*
%TO.P,U8,9,GND_9*%
%TO.N,GND*%
X65700000Y-108900000D03*
X65700000Y-107600000D03*
X65700000Y-106300000D03*
D30*
X65050000Y-107600000D03*
D29*
X64400000Y-108900000D03*
X64400000Y-107600000D03*
X64400000Y-106300000D03*
%TD*%
D28*
%TO.P,U9,1,GND_1*%
%TO.N,GND*%
X67925000Y-116605000D03*
%TO.P,U9,2,IN2_2*%
%TO.N,Net-(A1-GPIO28_ADC2)*%
X67925000Y-115335000D03*
%TO.P,U9,3,IN1_3*%
%TO.N,Net-(A1-GPIO27_ADC1)*%
X67925000Y-114065000D03*
%TO.P,U9,4,ILIM_4*%
%TO.N,Net-(U9-ILIM)*%
X67925000Y-112795000D03*
%TO.P,U9,5,VM_5*%
%TO.N,+15V-24V*%
X62175000Y-112795000D03*
%TO.P,U9,6,OUT1_6*%
%TO.N,Net-(U13I-B9a)*%
X62175000Y-114065000D03*
%TO.P,U9,7,GND_7*%
%TO.N,GND*%
X62175000Y-115335000D03*
%TO.P,U9,8,OUT2_8*%
%TO.N,Net-(U13I-B9b)*%
X62175000Y-116605000D03*
D29*
%TO.P,U9,9,GND_9*%
%TO.N,GND*%
X65700000Y-116000000D03*
X65700000Y-114700000D03*
X65700000Y-113400000D03*
D30*
X65050000Y-114700000D03*
D29*
X64400000Y-116000000D03*
X64400000Y-114700000D03*
X64400000Y-113400000D03*
%TD*%
D31*
%TO.P,C7,1*%
%TO.N,Net-(U7-ILIM)*%
X73600000Y-98837500D03*
%TO.P,C7,2*%
%TO.N,GND*%
X73600000Y-96762500D03*
%TD*%
D28*
%TO.P,U4,1,GND_1*%
%TO.N,GND*%
X68075000Y-81405000D03*
%TO.P,U4,2,IN2_2*%
%TO.N,Net-(A1-GPIO11)*%
X68075000Y-80135000D03*
%TO.P,U4,3,IN1_3*%
%TO.N,Net-(A1-GPIO10)*%
X68075000Y-78865000D03*
%TO.P,U4,4,ILIM_4*%
%TO.N,Net-(U4-ILIM)*%
X68075000Y-77595000D03*
%TO.P,U4,5,VM_5*%
%TO.N,+15V-24V*%
X62325000Y-77595000D03*
%TO.P,U4,6,OUT1_6*%
%TO.N,Net-(U13D-B4a)*%
X62325000Y-78865000D03*
%TO.P,U4,7,GND_7*%
%TO.N,GND*%
X62325000Y-80135000D03*
%TO.P,U4,8,OUT2_8*%
%TO.N,Net-(U13D-B4b)*%
X62325000Y-81405000D03*
D29*
%TO.P,U4,9,GND_9*%
%TO.N,GND*%
X65850000Y-80800000D03*
X65850000Y-79500000D03*
X65850000Y-78200000D03*
D30*
X65200000Y-79500000D03*
D29*
X64550000Y-80800000D03*
X64550000Y-79500000D03*
X64550000Y-78200000D03*
%TD*%
D24*
%TO.P,J6,1,Pin_1_1*%
%TO.N,GND*%
X128700000Y-77780000D03*
D25*
%TO.P,J6,2,Pin_2_2*%
%TO.N,+3.3V*%
X128700000Y-75240000D03*
%TO.P,J6,3,Pin_3_3*%
%TO.N,/Disp_SCL*%
X128700000Y-72700000D03*
%TO.P,J6,4,Pin_4_4*%
%TO.N,/D_SDA*%
X128700000Y-70160000D03*
%TD*%
D18*
%TO.P,C11,1*%
%TO.N,GND*%
X100900000Y-50462500D03*
%TO.P,C11,2*%
%TO.N,Net-(J1-Pin_1)*%
X100900000Y-52537500D03*
%TD*%
D35*
%TO.P,R8,1*%
%TO.N,Net-(U8-ILIM)*%
X71000000Y-105700000D03*
%TO.P,R8,2*%
%TO.N,GND*%
X71000000Y-103700000D03*
%TD*%
D37*
%TO.P,J1,1,Pin_1_1*%
%TO.N,Net-(J1-Pin_1)*%
X120300000Y-54500000D03*
D38*
%TO.P,J1,2,Pin_2_2*%
%TO.N,GND*%
X115300000Y-54500000D03*
%TD*%
D39*
%TO.P,U11,1,3\u002C3V_1*%
%TO.N,+3.3V*%
X106520000Y-85960000D03*
%TO.P,U11,2,GND_2*%
%TO.N,GND*%
X106520000Y-88500000D03*
%TO.P,U11,3,L1_3*%
%TO.N,Net-(A1-GPIO10)*%
X106520000Y-91040000D03*
%TO.P,U11,4,L2_4*%
%TO.N,Net-(A1-GPIO11)*%
X106520000Y-93580000D03*
%TO.P,U11,5,L3_5*%
%TO.N,Net-(A1-GPIO12)*%
X106520000Y-96120000D03*
%TO.P,U11,6,L4_6*%
%TO.N,Net-(A1-GPIO13)*%
X106520000Y-98660000D03*
%TO.P,U11,7,H4_7*%
%TO.N,/40dBb*%
X116680000Y-98660000D03*
%TO.P,U11,8,H3_8*%
%TO.N,/40dBa*%
X116680000Y-96120000D03*
%TO.P,U11,9,H2_9*%
%TO.N,/20dB*%
X116680000Y-93580000D03*
%TO.P,U11,10,H1_10*%
%TO.N,/10dB*%
X116680000Y-91040000D03*
%TO.P,U11,11,GND_11*%
%TO.N,GND*%
X116680000Y-88500000D03*
%TO.P,U11,12,5V_12*%
%TO.N,+5V*%
X116680000Y-85960000D03*
%TD*%
%TO.P,U13,1,B1a_1*%
%TO.N,Net-(U1-OUT1)*%
X56600000Y-65520000D03*
%TO.P,U13,2,B1b_2*%
%TO.N,Net-(U1-OUT2)*%
X56600000Y-68060000D03*
%TO.P,U13,3,B2a_3*%
%TO.N,Net-(U13B-B2a)*%
X56600000Y-70600000D03*
%TO.P,U13,4,B2b_4*%
%TO.N,Net-(U13B-B2b)*%
X56600000Y-73140000D03*
%TO.P,U13,5,B3a_5*%
%TO.N,Net-(U13C-B3a)*%
X56600000Y-75680000D03*
%TO.P,U13,6,B3b_6*%
%TO.N,Net-(U13C-B3b)*%
X56600000Y-78220000D03*
%TO.P,U13,7,B4a_7*%
%TO.N,Net-(U13D-B4a)*%
X56600000Y-80760000D03*
%TO.P,U13,8,B4b_8*%
%TO.N,Net-(U13D-B4b)*%
X56600000Y-83300000D03*
%TO.P,U13,9,B5a_9*%
%TO.N,Net-(U13E-B5a)*%
X56600000Y-85840000D03*
%TO.P,U13,10,B5b_10*%
%TO.N,Net-(U13E-B5b)*%
X56600000Y-88380000D03*
%TO.P,U13,11,B6a_11*%
%TO.N,Net-(U13F-B6a)*%
X56600000Y-90920000D03*
%TO.P,U13,12,B6b_12*%
%TO.N,Net-(U13F-B6b)*%
X56600000Y-93460000D03*
%TO.P,U13,13,B7a_13*%
%TO.N,Net-(U13G-B7a)*%
X56600000Y-96000000D03*
%TO.P,U13,14,B7b_14*%
%TO.N,Net-(U13G-B7b)*%
X56600000Y-98540000D03*
%TO.P,U13,15,B8a_15*%
%TO.N,Net-(U13H-B8a)*%
X56600000Y-101080000D03*
%TO.P,U13,16,B8b_16*%
%TO.N,Net-(U13H-B8b)*%
X56600000Y-103620000D03*
%TO.P,U13,17,B9a_17*%
%TO.N,Net-(U13I-B9a)*%
X56600000Y-106160000D03*
%TO.P,U13,18,B9b_18*%
%TO.N,Net-(U13I-B9b)*%
X56600000Y-108700000D03*
%TD*%
D31*
%TO.P,C12,1*%
%TO.N,GND*%
X64500000Y-123437500D03*
%TO.P,C12,2*%
%TO.N,+15V-24V*%
X64500000Y-121362500D03*
%TD*%
D35*
%TO.P,R6,1*%
%TO.N,Net-(U6-ILIM)*%
X71300000Y-91600000D03*
%TO.P,R6,2*%
%TO.N,GND*%
X71300000Y-89600000D03*
%TD*%
D24*
%TO.P,J4,1,Pin_1_1*%
%TO.N,+5V*%
X71000000Y-51600000D03*
D25*
%TO.P,J4,2,Pin_2_2*%
%TO.N,/TX*%
X68460000Y-51600000D03*
%TO.P,J4,3,Pin_3_3*%
%TO.N,/RX*%
X65920000Y-51600000D03*
%TO.P,J4,4,Pin_4_4*%
%TO.N,GND*%
X63380000Y-51600000D03*
%TD*%
D35*
%TO.P,R9,1*%
%TO.N,Net-(U9-ILIM)*%
X71200000Y-112800000D03*
%TO.P,R9,2*%
%TO.N,GND*%
X71200000Y-110800000D03*
%TD*%
D31*
%TO.P,C9,1*%
%TO.N,Net-(U9-ILIM)*%
X73600000Y-112837500D03*
%TO.P,C9,2*%
%TO.N,GND*%
X73600000Y-110762500D03*
%TD*%
D40*
%TO.P,U10,1,GND_1*%
%TO.N,GND*%
X117780000Y-80350000D03*
%TO.P,U10,2,GND_2*%
X115530000Y-80350000D03*
%TO.P,U10,3,IN_3*%
%TO.N,Net-(J1-Pin_1)*%
X107530000Y-61850000D03*
%TO.P,U10,4,IN_4*%
X105280000Y-61850000D03*
%TO.P,U10,5,GND_5*%
%TO.N,GND*%
X117780000Y-61850000D03*
%TO.P,U10,6,GND_6*%
X115530000Y-61850000D03*
%TO.P,U10,7,OUT_7*%
%TO.N,+5V*%
X107530000Y-80350000D03*
%TO.P,U10,8,OUT_8*%
X105280000Y-80350000D03*
%TD*%
D28*
%TO.P,U2,1,GND_1*%
%TO.N,GND*%
X68275000Y-67405000D03*
%TO.P,U2,2,IN2_2*%
%TO.N,Net-(A1-GPIO7)*%
X68275000Y-66135000D03*
%TO.P,U2,3,IN1_3*%
%TO.N,Net-(A1-GPIO6)*%
X68275000Y-64865000D03*
%TO.P,U2,4,ILIM_4*%
%TO.N,Net-(U2-ILIM)*%
X68275000Y-63595000D03*
%TO.P,U2,5,VM_5*%
%TO.N,+15V-24V*%
X62525000Y-63595000D03*
%TO.P,U2,6,OUT1_6*%
%TO.N,Net-(U13B-B2a)*%
X62525000Y-64865000D03*
%TO.P,U2,7,GND_7*%
%TO.N,GND*%
X62525000Y-66135000D03*
%TO.P,U2,8,OUT2_8*%
%TO.N,Net-(U13B-B2b)*%
X62525000Y-67405000D03*
D29*
%TO.P,U2,9,GND_9*%
%TO.N,GND*%
X66050000Y-66800000D03*
X66050000Y-65500000D03*
X66050000Y-64200000D03*
D30*
X65400000Y-65500000D03*
D29*
X64750000Y-66800000D03*
X64750000Y-65500000D03*
X64750000Y-64200000D03*
%TD*%
D19*
%TO.P,C3,1*%
%TO.N,Net-(U3-ILIM)*%
X73600000Y-70712500D03*
%TO.P,C3,2*%
%TO.N,GND*%
X73600000Y-68887500D03*
%TD*%
D31*
%TO.P,C8,1*%
%TO.N,Net-(U8-ILIM)*%
X73500000Y-105737500D03*
%TO.P,C8,2*%
%TO.N,GND*%
X73500000Y-103662500D03*
%TD*%
D41*
%TO.N,Net-(A1-GPIO26_ADC0)*%
X124800000Y-64800000D03*
%TO.N,GND*%
X100800000Y-69600000D03*
%TO.N,Net-(A1-GPIO26_ADC0)*%
X99600000Y-66100000D03*
%TO.N,GND*%
X129900000Y-66500000D03*
%TO.N,Net-(A1-GPIO18)*%
X101850000Y-102550000D03*
X75800000Y-104000000D03*
%TO.N,GND*%
X80500000Y-81150000D03*
X69200000Y-54800000D03*
X80500000Y-68450000D03*
X86900000Y-96600000D03*
X93500000Y-81150000D03*
X64500000Y-125800000D03*
X64500000Y-125200000D03*
X93500000Y-93850000D03*
X80500000Y-93800000D03*
X64500000Y-124600000D03*
X80500000Y-55750000D03*
X93500000Y-55750000D03*
%TO.N,+15V-24V*%
X66400000Y-111300000D03*
X63900000Y-83100000D03*
X64500000Y-83100000D03*
X63300000Y-97100000D03*
X66200000Y-55000000D03*
X63500000Y-90200000D03*
X65900000Y-90200000D03*
X62950000Y-55250000D03*
X63700000Y-111300000D03*
X62800000Y-62300000D03*
X65100000Y-83100000D03*
X64400000Y-111300000D03*
X65100000Y-111300000D03*
X64900000Y-104100000D03*
X66800000Y-55000000D03*
X65000000Y-55000000D03*
X64100000Y-90200000D03*
X66500000Y-76100000D03*
X66500000Y-90200000D03*
X65000000Y-62100000D03*
X62600000Y-90500000D03*
X64700000Y-90200000D03*
X66800000Y-62100000D03*
X64500000Y-119900000D03*
X63500000Y-76100000D03*
X62600000Y-104600000D03*
X64500000Y-97100000D03*
X66600000Y-69100000D03*
X64100000Y-76100000D03*
X63900000Y-97100000D03*
X65100000Y-97100000D03*
X66100000Y-104100000D03*
X65700000Y-97100000D03*
X62550000Y-83350000D03*
X65300000Y-76100000D03*
X63600000Y-69100000D03*
X64800000Y-69100000D03*
X64500000Y-118600000D03*
X65400000Y-69100000D03*
X64200000Y-69100000D03*
X62550000Y-97450000D03*
X65900000Y-76100000D03*
X66200000Y-62100000D03*
X63800000Y-55000000D03*
X65600000Y-62100000D03*
X62650000Y-76350000D03*
X64700000Y-76100000D03*
X64400000Y-55000000D03*
X63000000Y-111300000D03*
X65300000Y-90200000D03*
X65700000Y-83100000D03*
X64500000Y-119300000D03*
X63800000Y-62100000D03*
X62300000Y-111600000D03*
X65500000Y-104100000D03*
X66000000Y-69100000D03*
X63300000Y-83100000D03*
X64400000Y-62100000D03*
X63700000Y-104100000D03*
X62900000Y-69600000D03*
X65600000Y-55000000D03*
X64300000Y-104100000D03*
X66400000Y-97100000D03*
X63100000Y-104100000D03*
X65800000Y-111300000D03*
X66300000Y-83100000D03*
%TO.N,/20dB*%
X124200000Y-96100000D03*
%TO.N,/10dB*%
X125800000Y-100400000D03*
X125100000Y-94900000D03*
%TO.N,Net-(A1-GPIO17)*%
X98000000Y-102500000D03*
X71735000Y-101235000D03*
%TO.N,Net-(A1-GPIO16)*%
X95000000Y-101600000D03*
X75600000Y-101650000D03*
%TO.N,Net-(A1-GPIO9)*%
X70900000Y-74300000D03*
X80500000Y-78600000D03*
%TO.N,Net-(A1-GPIO15)*%
X74100000Y-100600000D03*
X71665000Y-94235000D03*
%TO.N,/D_SDA*%
X83600000Y-64600000D03*
%TO.N,/Disp_SCL*%
X82050000Y-65900000D03*
%TO.N,Net-(A1-GPIO6)*%
X73900000Y-72500000D03*
X73900000Y-65500000D03*
%TO.N,Net-(A1-GPIO7)*%
X72400000Y-66500000D03*
X72400000Y-72800000D03*
%TO.N,Net-(A1-GPIO10)*%
X71500000Y-79900000D03*
X80500000Y-83690000D03*
%TO.N,Net-(A1-GPIO11)*%
X80500000Y-86230000D03*
X70500000Y-80900000D03*
%TO.N,Net-(A1-GPIO12)*%
X80500000Y-88770000D03*
%TO.N,Net-(A1-GPIO13)*%
X80500000Y-91300000D03*
X70300000Y-87700000D03*
%TO.N,/D_SW*%
X101900000Y-78100000D03*
%TO.N,/D_DT*%
X100700000Y-76900000D03*
%TO.N,/d_CLK*%
X99550000Y-76350000D03*
%TO.N,Net-(A1-GPIO22)*%
X93500000Y-78600000D03*
X82500000Y-78600000D03*
%TO.N,Net-(A1-GPIO28_ADC2)*%
X91200000Y-70000000D03*
X91300000Y-72000000D03*
%TO.N,+3.3V*%
X113650000Y-84350000D03*
%TO.N,Net-(U13I-B9a)*%
X57600000Y-111800000D03*
%TD*%
%TO.N,Net-(A1-GPIO27_ADC1)*%
D42*
X67925000Y-114065000D02*
X81835000Y-114065000D01*
X81835000Y-114065000D02*
X82600000Y-113300000D01*
X82600000Y-113300000D02*
X82600000Y-82100000D01*
X82600000Y-82100000D02*
X84500000Y-80200000D01*
X84500000Y-80200000D02*
X84500000Y-71700000D01*
X84500000Y-71700000D02*
X85210000Y-70990000D01*
X85210000Y-70990000D02*
X96590000Y-70990000D01*
%TO.N,Net-(A1-GPIO22)*%
X82500000Y-78600000D02*
X82500000Y-80200000D01*
X82500000Y-80200000D02*
X81900000Y-80800000D01*
X81900000Y-80800000D02*
X81900000Y-107200000D01*
X81900000Y-107200000D02*
X80865000Y-108235000D01*
X80865000Y-108235000D02*
X67925000Y-108235000D01*
%TO.N,GND*%
D43*
X100900000Y-50462500D02*
X107030000Y-50462500D01*
D42*
X107030000Y-50462500D02*
X107467500Y-50900000D01*
%TO.N,Net-(J1-Pin_1)*%
D43*
X100900000Y-52537500D02*
X100937500Y-52500000D01*
X100937500Y-52500000D02*
X102732500Y-52500000D01*
X102732500Y-52500000D02*
X107100000Y-56867500D01*
D44*
X100937500Y-52700000D02*
X101662500Y-52700000D01*
%TO.N,GND*%
X100900000Y-50462500D02*
X101200000Y-50762500D01*
%TO.N,Net-(J1-Pin_1)*%
X100900000Y-52537500D02*
X100900000Y-52662500D01*
X100900000Y-52662500D02*
X100937500Y-52700000D01*
%TO.N,Net-(A1-GPIO26_ADC0)*%
D42*
X127800000Y-64800000D02*
X124800000Y-64800000D01*
%TO.N,GND*%
X129900000Y-66500000D02*
X129900000Y-64900000D01*
X129900000Y-64900000D02*
X129800000Y-64800000D01*
%TO.N,+3.3V*%
D44*
X131100000Y-62700000D02*
X129800000Y-61400000D01*
X131100000Y-74600000D02*
X131100000Y-62700000D01*
X130460000Y-75240000D02*
X131100000Y-74600000D01*
X128700000Y-75240000D02*
X130460000Y-75240000D01*
%TO.N,Net-(A1-GPIO26_ADC0)*%
D42*
X127700000Y-64600000D02*
X127700000Y-61500000D01*
X127800000Y-64800000D02*
X127800000Y-64700000D01*
X127800000Y-64700000D02*
X127700000Y-64600000D01*
X127700000Y-61500000D02*
X127800000Y-61400000D01*
%TO.N,GND*%
X100800000Y-71362500D02*
X100800000Y-69600000D01*
%TO.N,Net-(A1-GPIO26_ADC0)*%
X99600000Y-66100000D02*
X99300000Y-66400000D01*
X99300000Y-66400000D02*
X99300000Y-73530000D01*
X99300000Y-73530000D02*
X96590000Y-73530000D01*
X96590000Y-73530000D02*
X100807500Y-73530000D01*
X100807500Y-73530000D02*
X100900000Y-73437500D01*
X96590000Y-73530000D02*
X96620000Y-73500000D01*
%TO.N,/D_SDA*%
X83600000Y-64600000D02*
X82100000Y-64600000D01*
X80870000Y-63370000D02*
X77210000Y-63370000D01*
X82100000Y-64600000D02*
X80870000Y-63370000D01*
%TO.N,Net-(A1-GPIO17)*%
X97900000Y-102500000D02*
X100200000Y-100200000D01*
X100200000Y-100200000D02*
X100200000Y-97600000D01*
X100200000Y-97600000D02*
X98990000Y-96390000D01*
X98990000Y-96390000D02*
X96590000Y-96390000D01*
%TO.N,Net-(A1-GPIO18)*%
X75800000Y-104000000D02*
X75400000Y-104400000D01*
X75400000Y-104400000D02*
X75400000Y-106600000D01*
X75035000Y-106965000D02*
X67925000Y-106965000D01*
X75400000Y-106600000D02*
X75035000Y-106965000D01*
X101850000Y-92150000D02*
X101000000Y-91300000D01*
X101850000Y-102550000D02*
X101850000Y-92150000D01*
X101000000Y-91300000D02*
X100990000Y-91310000D01*
X100990000Y-91310000D02*
X96590000Y-91310000D01*
%TO.N,GND*%
D44*
X107100000Y-51267500D02*
X107467500Y-50900000D01*
D45*
X107467500Y-50900000D02*
X111700000Y-50900000D01*
X111700000Y-50900000D02*
X115300000Y-54500000D01*
D44*
X106732500Y-50900000D02*
X107100000Y-51267500D01*
%TO.N,+5V*%
D43*
X105280000Y-80350000D02*
X105280000Y-65980000D01*
X105280000Y-65980000D02*
X100800000Y-61500000D01*
X100800000Y-61500000D02*
X100800000Y-55600000D01*
X100800000Y-55600000D02*
X98600000Y-53400000D01*
X98600000Y-53400000D02*
X98500000Y-53400000D01*
X98500000Y-53300000D02*
X96680000Y-53300000D01*
X96680000Y-53300000D02*
X96590000Y-53210000D01*
%TO.N,Net-(J1-Pin_1)*%
D45*
X108000000Y-58600000D02*
X122500000Y-58600000D01*
D43*
X107100000Y-56867500D02*
X107100000Y-61420000D01*
X107100000Y-61420000D02*
X107530000Y-61850000D01*
D45*
X122500000Y-68200000D02*
X122500000Y-58600000D01*
%TO.N,/10dB*%
D42*
X125800000Y-100400000D02*
X125800000Y-95600000D01*
X125800000Y-95600000D02*
X125100000Y-94900000D01*
%TO.N,Net-(U1-ILIM)*%
X71100000Y-56612500D02*
X73600000Y-56612500D01*
X68375000Y-56595000D02*
X71082500Y-56595000D01*
D44*
X73600000Y-56612500D02*
X73700000Y-56512500D01*
X71082500Y-56595000D02*
X71100000Y-56612500D01*
%TO.N,GND*%
X68075000Y-95505000D02*
X66455000Y-95505000D01*
D46*
X69995000Y-109505000D02*
X67925000Y-109505000D01*
D44*
X73700000Y-89562500D02*
X71337500Y-89562500D01*
D46*
X62175000Y-108235000D02*
X64415000Y-108235000D01*
D44*
X68075000Y-81405000D02*
X69005000Y-81405000D01*
X71500000Y-75887500D02*
X73800000Y-75887500D01*
X93500000Y-93850000D02*
X96590000Y-93850000D01*
X69900000Y-67400000D02*
X69895000Y-67405000D01*
D46*
X71200000Y-110700000D02*
X70000000Y-109500000D01*
D44*
X67975000Y-102505000D02*
X66355000Y-102505000D01*
D42*
X80500000Y-68450000D02*
X77210000Y-68450000D01*
D46*
X73500000Y-103662500D02*
X71037500Y-103662500D01*
D44*
X70200000Y-82600000D02*
X71200000Y-82600000D01*
X71100000Y-61687500D02*
X73600000Y-61687500D01*
X69805000Y-95505000D02*
X71100000Y-96800000D01*
X68175000Y-88405000D02*
X66555000Y-88405000D01*
X62475000Y-73235000D02*
X64715000Y-73235000D01*
X69005000Y-81405000D02*
X70200000Y-82600000D01*
D42*
X64065000Y-73235000D02*
X64700000Y-72600000D01*
D44*
X69212500Y-54787500D02*
X69200000Y-54800000D01*
X86900000Y-98700000D02*
X86900000Y-96600000D01*
D46*
X71037500Y-103662500D02*
X71000000Y-103700000D01*
D42*
X77210000Y-81150000D02*
X80500000Y-81150000D01*
D44*
X96590000Y-55750000D02*
X93500000Y-55750000D01*
X68275000Y-67405000D02*
X66655000Y-67405000D01*
X71087500Y-75887500D02*
X69700000Y-74500000D01*
X73600000Y-68887500D02*
X71300000Y-68887500D01*
D46*
X69700000Y-102500000D02*
X69695000Y-102505000D01*
D44*
X93500000Y-81150000D02*
X96590000Y-81150000D01*
D42*
X64015000Y-87135000D02*
X64650000Y-86500000D01*
D46*
X66305000Y-109505000D02*
X65700000Y-108900000D01*
D44*
X74387500Y-54687500D02*
X75500000Y-55800000D01*
X73625000Y-110737500D02*
X73600000Y-110762500D01*
D46*
X64765000Y-66135000D02*
X65400000Y-65500000D01*
X64415000Y-108235000D02*
X65050000Y-107600000D01*
D44*
X69700000Y-74500000D02*
X69695000Y-74505000D01*
D46*
X64865000Y-59135000D02*
X65500000Y-58500000D01*
D44*
X68375000Y-60405000D02*
X69817500Y-60405000D01*
X62325000Y-94235000D02*
X64565000Y-94235000D01*
D46*
X71000000Y-103700000D02*
X70900000Y-103700000D01*
D44*
X68075000Y-81405000D02*
X66455000Y-81405000D01*
X71100000Y-96800000D02*
X73562500Y-96800000D01*
D46*
X62425000Y-87135000D02*
X64665000Y-87135000D01*
D45*
X78400000Y-123700000D02*
X78500000Y-123800000D01*
D46*
X64665000Y-87135000D02*
X65300000Y-86500000D01*
X62525000Y-66135000D02*
X64765000Y-66135000D01*
D44*
X66355000Y-102505000D02*
X65750000Y-101900000D01*
D46*
X71200000Y-110800000D02*
X71200000Y-110700000D01*
D45*
X78300000Y-123800000D02*
X78500000Y-123800000D01*
D46*
X64565000Y-80135000D02*
X65200000Y-79500000D01*
D44*
X73700000Y-54687500D02*
X74387500Y-54687500D01*
X73562500Y-82600000D02*
X73600000Y-82562500D01*
X64565000Y-94235000D02*
X65200000Y-93600000D01*
D46*
X62625000Y-59135000D02*
X64865000Y-59135000D01*
D44*
X68375000Y-60405000D02*
X66755000Y-60405000D01*
D46*
X67925000Y-116605000D02*
X66305000Y-116605000D01*
D44*
X80500000Y-93800000D02*
X77900000Y-93800000D01*
X69695000Y-74505000D02*
X68225000Y-74505000D01*
X66455000Y-81405000D02*
X65850000Y-80800000D01*
X62225000Y-101235000D02*
X64465000Y-101235000D01*
D46*
X62325000Y-80135000D02*
X64565000Y-80135000D01*
D44*
X71300000Y-68800000D02*
X69900000Y-67400000D01*
X80500000Y-55750000D02*
X77210000Y-55750000D01*
D42*
X73662500Y-89900000D02*
X73700000Y-89862500D01*
D44*
X66755000Y-60405000D02*
X66150000Y-59800000D01*
D46*
X69695000Y-102505000D02*
X67975000Y-102505000D01*
D43*
X64500000Y-125200000D02*
X64500000Y-125800000D01*
D42*
X63915000Y-80135000D02*
X64550000Y-79500000D01*
D46*
X70900000Y-103700000D02*
X69700000Y-102500000D01*
D43*
X64500000Y-125800000D02*
X64500000Y-126000000D01*
D46*
X67925000Y-109505000D02*
X66305000Y-109505000D01*
D44*
X77900000Y-93800000D02*
X77700000Y-94000000D01*
D46*
X66305000Y-116605000D02*
X65700000Y-116000000D01*
D43*
X64500000Y-124600000D02*
X64500000Y-125200000D01*
D44*
X73562500Y-96800000D02*
X73600000Y-96762500D01*
D46*
X73600000Y-110762500D02*
X71237500Y-110762500D01*
X70000000Y-109500000D02*
X69995000Y-109505000D01*
D44*
X77550000Y-93850000D02*
X77210000Y-93850000D01*
X66655000Y-67405000D02*
X66050000Y-66800000D01*
X66555000Y-88405000D02*
X65950000Y-87800000D01*
X69895000Y-67405000D02*
X68275000Y-67405000D01*
X66605000Y-74505000D02*
X66000000Y-73900000D01*
X73600000Y-54787500D02*
X73700000Y-54687500D01*
X66455000Y-95505000D02*
X65850000Y-94900000D01*
X71337500Y-89562500D02*
X71300000Y-89600000D01*
X69405000Y-88405000D02*
X68175000Y-88405000D01*
D46*
X62175000Y-115335000D02*
X63765000Y-115335000D01*
D44*
X77210000Y-55750000D02*
X75550000Y-55750000D01*
X71100000Y-54787500D02*
X69212500Y-54787500D01*
X71300000Y-89600000D02*
X70600000Y-89600000D01*
X68075000Y-95505000D02*
X69805000Y-95505000D01*
D42*
X71000000Y-90000000D02*
X71300000Y-89700000D01*
D44*
X70600000Y-89600000D02*
X69405000Y-88405000D01*
X69817500Y-60405000D02*
X71100000Y-61687500D01*
X64465000Y-101235000D02*
X65100000Y-100600000D01*
X75550000Y-55750000D02*
X75500000Y-55800000D01*
X68225000Y-74505000D02*
X66605000Y-74505000D01*
D46*
X71237500Y-110762500D02*
X71200000Y-110800000D01*
D44*
X71200000Y-82600000D02*
X73562500Y-82600000D01*
X71300000Y-68887500D02*
X71300000Y-68800000D01*
D43*
X64500000Y-123437500D02*
X64500000Y-124600000D01*
D44*
X64715000Y-73235000D02*
X65350000Y-72600000D01*
X77700000Y-94000000D02*
X77550000Y-93850000D01*
X71500000Y-75887500D02*
X71087500Y-75887500D01*
D46*
X63765000Y-115335000D02*
X64400000Y-114700000D01*
D44*
X71100000Y-54787500D02*
X73600000Y-54787500D01*
%TO.N,/40dBa*%
D42*
X116840000Y-96120000D02*
X116680000Y-96120000D01*
X114100000Y-96900000D02*
X114900000Y-96100000D01*
X114100000Y-117500000D02*
X114100000Y-96900000D01*
X114920000Y-96120000D02*
X116680000Y-96120000D01*
X128696641Y-117303359D02*
X127800000Y-118200000D01*
X117160000Y-96440000D02*
X116840000Y-96120000D01*
X114800000Y-118200000D02*
X114100000Y-117500000D01*
X128696641Y-115280000D02*
X128696641Y-117303359D01*
X127800000Y-118200000D02*
X114800000Y-118200000D01*
X114900000Y-96100000D02*
X114920000Y-96120000D01*
%TO.N,+15V-24V*%
D46*
X62600000Y-90500000D02*
X62900000Y-90200000D01*
X65800000Y-111300000D02*
X66000000Y-111300000D01*
X65300000Y-76100000D02*
X65500000Y-76100000D01*
X63600000Y-69100000D02*
X64200000Y-69100000D01*
X63700000Y-111300000D02*
X64200000Y-111300000D01*
X66100000Y-104100000D02*
X66300000Y-104100000D01*
X62325000Y-90775000D02*
X62600000Y-90500000D01*
D47*
X62625000Y-55575000D02*
X62950000Y-55250000D01*
D46*
X62900000Y-76100000D02*
X62650000Y-76350000D01*
X62225000Y-97775000D02*
X62550000Y-97450000D01*
X64200000Y-111300000D02*
X64400000Y-111300000D01*
D47*
X62525000Y-63595000D02*
X62525000Y-62575000D01*
D46*
X64500000Y-97100000D02*
X64900000Y-97100000D01*
X65900000Y-90200000D02*
X66500000Y-90200000D01*
X62500000Y-70000000D02*
X62900000Y-69600000D01*
X62425000Y-84595000D02*
X62425000Y-83475000D01*
X64200000Y-104100000D02*
X64300000Y-104100000D01*
X64000000Y-90200000D02*
X64100000Y-90200000D01*
X64200000Y-76100000D02*
X64500000Y-76100000D01*
X64700000Y-104100000D02*
X64900000Y-104100000D01*
X64700000Y-90200000D02*
X65300000Y-90200000D01*
X62550000Y-83350000D02*
X62800000Y-83100000D01*
X63100000Y-104100000D02*
X63700000Y-104100000D01*
X65100000Y-76100000D02*
X65300000Y-76100000D01*
X65700000Y-76100000D02*
X65900000Y-76100000D01*
X64300000Y-104100000D02*
X64700000Y-104100000D01*
X63300000Y-97100000D02*
X63900000Y-97100000D01*
X62600000Y-111300000D02*
X63000000Y-111300000D01*
X65900000Y-97100000D02*
X66400000Y-97100000D01*
X64100000Y-76100000D02*
X64200000Y-76100000D01*
X65300000Y-90200000D02*
X65900000Y-90200000D01*
X66400000Y-76100000D02*
X66500000Y-76100000D01*
X64500000Y-76100000D02*
X64600000Y-76100000D01*
X63600000Y-76100000D02*
X63500000Y-76100000D01*
X65500000Y-104100000D02*
X65700000Y-104100000D01*
D47*
X62625000Y-56595000D02*
X62625000Y-55575000D01*
X63000000Y-62100000D02*
X66800000Y-62100000D01*
D46*
X66400000Y-97100000D02*
X66500000Y-97100000D01*
X63900000Y-76100000D02*
X63600000Y-76100000D01*
X65400000Y-111300000D02*
X65800000Y-111300000D01*
X65100000Y-83100000D02*
X65700000Y-83100000D01*
X62175000Y-105695000D02*
X62175000Y-105025000D01*
X62900000Y-69600000D02*
X63400000Y-69100000D01*
X66000000Y-76100000D02*
X66400000Y-76100000D01*
X62175000Y-112795000D02*
X62175000Y-111725000D01*
X62475000Y-70695000D02*
X62500000Y-70670000D01*
X64800000Y-69100000D02*
X65400000Y-69100000D01*
X62425000Y-83475000D02*
X62550000Y-83350000D01*
X62175000Y-105025000D02*
X62600000Y-104600000D01*
X65700000Y-97100000D02*
X65900000Y-97100000D01*
D47*
X63200000Y-55000000D02*
X63800000Y-55000000D01*
D46*
X63300000Y-83100000D02*
X63900000Y-83100000D01*
D43*
X64500000Y-119900000D02*
X64500000Y-119600000D01*
X64500000Y-119600000D02*
X64500000Y-118600000D01*
D46*
X66000000Y-111300000D02*
X66400000Y-111300000D01*
X66300000Y-104100000D02*
X66400000Y-104100000D01*
X65100000Y-111300000D02*
X65400000Y-111300000D01*
X66500000Y-90200000D02*
X66700000Y-90200000D01*
X64900000Y-97100000D02*
X65100000Y-97100000D01*
X63700000Y-104100000D02*
X64200000Y-104100000D01*
X62325000Y-76675000D02*
X62650000Y-76350000D01*
X65400000Y-69100000D02*
X66000000Y-69100000D01*
D47*
X62950000Y-55250000D02*
X63200000Y-55000000D01*
D46*
X66300000Y-83100000D02*
X66400000Y-83100000D01*
X62800000Y-83100000D02*
X63300000Y-83100000D01*
X66000000Y-69100000D02*
X66600000Y-69100000D01*
X65500000Y-76100000D02*
X65700000Y-76100000D01*
X64400000Y-111300000D02*
X64800000Y-111300000D01*
X62900000Y-97100000D02*
X63300000Y-97100000D01*
X63400000Y-69100000D02*
X63600000Y-69100000D01*
X62600000Y-104600000D02*
X63100000Y-104100000D01*
X65000000Y-76100000D02*
X65100000Y-76100000D01*
X65900000Y-76100000D02*
X66000000Y-76100000D01*
X64000000Y-83100000D02*
X64500000Y-83100000D01*
X62325000Y-91695000D02*
X62325000Y-90775000D01*
X62300000Y-111600000D02*
X62600000Y-111300000D01*
D47*
X62800000Y-62300000D02*
X63000000Y-62100000D01*
D46*
X63900000Y-97100000D02*
X64400000Y-97100000D01*
X63500000Y-90200000D02*
X64000000Y-90200000D01*
D47*
X63800000Y-55000000D02*
X66800000Y-55000000D01*
D43*
X64500000Y-121362500D02*
X64500000Y-120200000D01*
D47*
X62525000Y-62575000D02*
X62800000Y-62300000D01*
D46*
X64700000Y-76100000D02*
X65000000Y-76100000D01*
X62325000Y-77595000D02*
X62325000Y-76675000D01*
X62550000Y-97450000D02*
X62900000Y-97100000D01*
X62225000Y-98695000D02*
X62225000Y-97775000D01*
X62900000Y-90200000D02*
X63500000Y-90200000D01*
X64500000Y-83100000D02*
X64900000Y-83100000D01*
X63500000Y-76100000D02*
X62900000Y-76100000D01*
X62175000Y-111725000D02*
X62300000Y-111600000D01*
X65400000Y-97100000D02*
X65700000Y-97100000D01*
X64200000Y-69100000D02*
X64800000Y-69100000D01*
X64100000Y-90200000D02*
X64700000Y-90200000D01*
X64900000Y-104100000D02*
X65200000Y-104100000D01*
X63000000Y-111300000D02*
X63600000Y-111300000D01*
X63900000Y-83100000D02*
X64000000Y-83100000D01*
X62500000Y-70670000D02*
X62500000Y-70000000D01*
X64400000Y-97100000D02*
X64500000Y-97100000D01*
X65700000Y-104100000D02*
X66100000Y-104100000D01*
X65200000Y-104100000D02*
X65500000Y-104100000D01*
X63900000Y-76100000D02*
X64100000Y-76100000D01*
D43*
X64500000Y-118600000D02*
X64500000Y-118300000D01*
X64500000Y-120200000D02*
X64500000Y-119900000D01*
D46*
X66400000Y-111300000D02*
X66500000Y-111300000D01*
X64600000Y-76100000D02*
X64700000Y-76100000D01*
X63600000Y-111300000D02*
X63700000Y-111300000D01*
X64900000Y-83100000D02*
X65100000Y-83100000D01*
X65100000Y-97100000D02*
X65400000Y-97100000D01*
X64800000Y-111300000D02*
X65100000Y-111300000D01*
X65700000Y-83100000D02*
X66300000Y-83100000D01*
%TO.N,/20dB*%
D42*
X126156641Y-112740000D02*
X125040000Y-112740000D01*
X125040000Y-112740000D02*
X124200000Y-111900000D01*
X124200000Y-111900000D02*
X124200000Y-96100000D01*
%TO.N,/10dB*%
X117080000Y-91040000D02*
X117400000Y-91360000D01*
X116680000Y-91040000D02*
X117080000Y-91040000D01*
%TO.N,Net-(J1-Pin_1)*%
D45*
X117800000Y-105500000D02*
X119350000Y-105500000D01*
X119350000Y-105500000D02*
X122500000Y-102350000D01*
X122500000Y-58600000D02*
X122500000Y-56700000D01*
D43*
X105280000Y-61850000D02*
X107530000Y-61850000D01*
D45*
X122500000Y-56700000D02*
X120300000Y-54500000D01*
X122500000Y-102350000D02*
X122500000Y-68200000D01*
D44*
X120300000Y-54500000D02*
X120000000Y-54800000D01*
X117500000Y-105800000D02*
X117800000Y-105500000D01*
X120332500Y-54532500D02*
X120300000Y-54500000D01*
%TO.N,Net-(U4-ILIM)*%
X71500000Y-77712500D02*
X73800000Y-77712500D01*
X68075000Y-77595000D02*
X71382500Y-77595000D01*
X71382500Y-77595000D02*
X71500000Y-77712500D01*
X68195000Y-77595000D02*
X68200000Y-77600000D01*
X68075000Y-77595000D02*
X68195000Y-77595000D01*
%TO.N,Net-(A1-GPIO17)*%
D42*
X71735000Y-101235000D02*
X67975000Y-101235000D01*
%TO.N,Net-(A1-GPIO16)*%
X95000000Y-101600000D02*
X95500000Y-101600000D01*
X75600000Y-101650000D02*
X73450000Y-101650000D01*
X95500000Y-101600000D02*
X96590000Y-100510000D01*
X73550000Y-101650000D02*
X75600000Y-101650000D01*
X71765000Y-99965000D02*
X67975000Y-99965000D01*
X73450000Y-101650000D02*
X71765000Y-99965000D01*
X96590000Y-100510000D02*
X96590000Y-98930000D01*
%TO.N,Net-(U7-ILIM)*%
D44*
X73562500Y-98800000D02*
X73600000Y-98837500D01*
X70995000Y-98695000D02*
X71100000Y-98800000D01*
X71100000Y-98800000D02*
X73562500Y-98800000D01*
X67975000Y-98695000D02*
X70995000Y-98695000D01*
%TO.N,Net-(U13G-B7a)*%
D46*
X60565000Y-99965000D02*
X62225000Y-99965000D01*
X60100000Y-99500000D02*
X60565000Y-99965000D01*
X60100000Y-97400000D02*
X60100000Y-99500000D01*
X58700000Y-96000000D02*
X60100000Y-97400000D01*
X56600000Y-96000000D02*
X58700000Y-96000000D01*
%TO.N,Net-(U13G-B7b)*%
X58440000Y-98540000D02*
X58900000Y-99000000D01*
X56600000Y-98540000D02*
X58440000Y-98540000D01*
X58900000Y-99000000D02*
X58900000Y-101300000D01*
X60105000Y-102505000D02*
X62225000Y-102505000D01*
X58900000Y-101300000D02*
X60105000Y-102505000D01*
%TO.N,Net-(A1-GPIO9)*%
D42*
X80490000Y-78610000D02*
X77210000Y-78610000D01*
X69835000Y-73235000D02*
X70900000Y-74300000D01*
X80500000Y-78600000D02*
X80490000Y-78610000D01*
X68225000Y-73235000D02*
X69835000Y-73235000D01*
%TO.N,Net-(A1-GPIO8)*%
X68225000Y-71965000D02*
X69865000Y-71965000D01*
X69865000Y-71965000D02*
X72400000Y-74500000D01*
X72400000Y-74500000D02*
X75640000Y-74500000D01*
X75640000Y-74500000D02*
X77210000Y-76070000D01*
%TO.N,Net-(U3-ILIM)*%
D44*
X68225000Y-70695000D02*
X71282500Y-70695000D01*
X71300000Y-70712500D02*
X73600000Y-70712500D01*
D42*
X71300000Y-70912500D02*
X71300000Y-70712500D01*
D44*
X71282500Y-70695000D02*
X71300000Y-70712500D01*
%TO.N,Net-(U13C-B3a)*%
D46*
X61635000Y-71965000D02*
X57920000Y-75680000D01*
X62475000Y-71965000D02*
X61635000Y-71965000D01*
X57920000Y-75680000D02*
X56600000Y-75680000D01*
%TO.N,Net-(U13C-B3b)*%
X58280000Y-78220000D02*
X57390000Y-78220000D01*
X62475000Y-74505000D02*
X61105000Y-74505000D01*
X61100000Y-75400000D02*
X58280000Y-78220000D01*
X61100000Y-74500000D02*
X61100000Y-75400000D01*
D42*
X57390000Y-78220000D02*
X56600000Y-78220000D01*
D46*
X61105000Y-74505000D02*
X61100000Y-74500000D01*
%TO.N,Net-(A1-GPIO15)*%
D42*
X76400000Y-100600000D02*
X74100000Y-100600000D01*
X77210000Y-98930000D02*
X77210000Y-99790000D01*
X68075000Y-94235000D02*
X71665000Y-94235000D01*
X71700000Y-94200000D02*
X71665000Y-94235000D01*
X77210000Y-99790000D02*
X76400000Y-100600000D01*
%TO.N,Net-(A1-GPIO14)*%
X74500000Y-93400000D02*
X74100000Y-93000000D01*
X77100000Y-96500000D02*
X76000000Y-96500000D01*
X75973002Y-96273002D02*
X74500000Y-94800000D01*
D46*
X68365000Y-92965000D02*
X68400000Y-93000000D01*
D42*
X77210000Y-96390000D02*
X77100000Y-96500000D01*
X76000000Y-96500000D02*
X75973002Y-96473002D01*
X74100000Y-93000000D02*
X68400000Y-93000000D01*
X74500000Y-94800000D02*
X74500000Y-93400000D01*
D46*
X68075000Y-92965000D02*
X68365000Y-92965000D01*
D42*
X75973002Y-96473002D02*
X75973002Y-96273002D01*
%TO.N,Net-(U6-ILIM)*%
X71300000Y-91900000D02*
X71400000Y-92000000D01*
D44*
X73662500Y-91600000D02*
X73700000Y-91637500D01*
X71300000Y-91600000D02*
X73662500Y-91600000D01*
X68075000Y-91695000D02*
X71205000Y-91695000D01*
D42*
X71400000Y-92000000D02*
X71462500Y-91937500D01*
D44*
X71205000Y-91695000D02*
X71300000Y-91600000D01*
%TO.N,Net-(U13F-B6a)*%
D47*
X58720000Y-90995000D02*
X60690000Y-92965000D01*
X56600000Y-90920000D02*
X58720000Y-90920000D01*
X60690000Y-92965000D02*
X62325000Y-92965000D01*
X58720000Y-90920000D02*
X58720000Y-90995000D01*
%TO.N,Net-(U13F-B6b)*%
X56600000Y-93460000D02*
X59085000Y-93460000D01*
X61130000Y-95505000D02*
X62325000Y-95505000D01*
X59085000Y-93460000D02*
X61130000Y-95505000D01*
%TO.N,Net-(A1-GPIO3)*%
D42*
X75530000Y-60830000D02*
X77210000Y-60830000D01*
X68410000Y-59100000D02*
X68375000Y-59135000D01*
%TO.N,Net-(A1-GPIO2)*%
X74800000Y-58300000D02*
X74810000Y-58290000D01*
X68375000Y-57865000D02*
X69865000Y-57865000D01*
%TO.N,Net-(U1-OUT1)*%
D46*
X62625000Y-57865000D02*
X57835000Y-57865000D01*
X57835000Y-57865000D02*
X56600000Y-59100000D01*
D48*
X62625000Y-57865000D02*
X62525000Y-57965000D01*
D46*
X56600000Y-59100000D02*
X56600000Y-65520000D01*
%TO.N,Net-(U1-OUT2)*%
X59100000Y-66300000D02*
X57340000Y-68060000D01*
D48*
X57340000Y-68060000D02*
X56600000Y-68060000D01*
D46*
X60595000Y-60405000D02*
X59100000Y-61900000D01*
X62625000Y-60405000D02*
X60595000Y-60405000D01*
X59100000Y-61900000D02*
X59100000Y-66300000D01*
D48*
X62625000Y-60405000D02*
X62525000Y-60505000D01*
%TO.N,/TX*%
D42*
X68460000Y-51600000D02*
X68460000Y-50710000D01*
X68360000Y-51700000D02*
X68000000Y-51700000D01*
X69370000Y-49800000D02*
X76340000Y-49800000D01*
D48*
X77210000Y-50670000D02*
X77140000Y-50600000D01*
D42*
X68460000Y-51600000D02*
X68700000Y-51600000D01*
X76340000Y-49800000D02*
X77210000Y-50670000D01*
X68460000Y-50710000D02*
X69370000Y-49800000D01*
X68460000Y-51600000D02*
X68360000Y-51700000D01*
%TO.N,/RX*%
X77210000Y-53210000D02*
X66640000Y-53210000D01*
X66640000Y-53210000D02*
X65920000Y-52490000D01*
X65920000Y-52490000D02*
X65920000Y-51600000D01*
%TO.N,/Disp_SCL*%
X81610000Y-65910000D02*
X77210000Y-65910000D01*
X81620000Y-65900000D02*
X81610000Y-65910000D01*
X82050000Y-65900000D02*
X81620000Y-65900000D01*
%TO.N,Net-(A1-GPIO6)*%
X77210000Y-70990000D02*
X75910000Y-70990000D01*
X73900000Y-65500000D02*
X74000000Y-65600000D01*
X70800000Y-65500000D02*
X70165000Y-64865000D01*
X73900000Y-65500000D02*
X70800000Y-65500000D01*
X74400000Y-72500000D02*
X73900000Y-72500000D01*
X75910000Y-70990000D02*
X74400000Y-72500000D01*
X70165000Y-64865000D02*
X68275000Y-64865000D01*
X68275000Y-64865000D02*
X68280000Y-64860000D01*
%TO.N,Net-(A1-GPIO7)*%
X72400000Y-72800000D02*
X72400000Y-72860000D01*
X73070000Y-73530000D02*
X77210000Y-73530000D01*
X72400000Y-72860000D02*
X73070000Y-73530000D01*
X72400000Y-66500000D02*
X70300000Y-66500000D01*
X77115000Y-74365000D02*
X77210000Y-74270000D01*
X70300000Y-66500000D02*
X69935000Y-66135000D01*
X69935000Y-66135000D02*
X68275000Y-66135000D01*
%TO.N,Net-(A1-GPIO10)*%
X70700000Y-79900000D02*
X69665000Y-78865000D01*
X76470000Y-83690000D02*
X77210000Y-83690000D01*
X76415000Y-83635000D02*
X76470000Y-83690000D01*
X71500000Y-79900000D02*
X70700000Y-79900000D01*
X80500000Y-83690000D02*
X77210000Y-83690000D01*
X69665000Y-78865000D02*
X68075000Y-78865000D01*
D44*
X77210000Y-83690000D02*
X77300000Y-83600000D01*
%TO.N,Net-(A1-GPIO11)*%
D42*
X68075000Y-80135000D02*
X69735000Y-80135000D01*
X80500000Y-86230000D02*
X77210000Y-86230000D01*
X69735000Y-80135000D02*
X70500000Y-80900000D01*
%TO.N,Net-(A1-GPIO12)*%
X80500000Y-88770000D02*
X77210000Y-88770000D01*
X71000000Y-87200000D02*
X74400000Y-87200000D01*
X69665000Y-85865000D02*
X71000000Y-87200000D01*
X74400000Y-87200000D02*
X75970000Y-88770000D01*
X68175000Y-85865000D02*
X69665000Y-85865000D01*
D44*
X77920000Y-88800000D02*
X77890000Y-88770000D01*
D42*
X75970000Y-88770000D02*
X77210000Y-88770000D01*
%TO.N,Net-(A1-GPIO13)*%
X80420000Y-91300000D02*
X80410000Y-91310000D01*
X80500000Y-91300000D02*
X80420000Y-91300000D01*
X69735000Y-87135000D02*
X70300000Y-87700000D01*
X80410000Y-91310000D02*
X77210000Y-91310000D01*
X68175000Y-87135000D02*
X69735000Y-87135000D01*
%TO.N,/D_SW*%
X102000000Y-78200000D02*
X102000000Y-86800000D01*
X102000000Y-86800000D02*
X100030000Y-88770000D01*
X101900000Y-78100000D02*
X102000000Y-78200000D01*
X100030000Y-88770000D02*
X96590000Y-88770000D01*
%TO.N,/D_DT*%
X99770000Y-86230000D02*
X96590000Y-86230000D01*
X100700000Y-76900000D02*
X100700000Y-85300000D01*
X100700000Y-85300000D02*
X99770000Y-86230000D01*
%TO.N,/d_CLK*%
X99550000Y-76350000D02*
X99500000Y-76400000D01*
X99500000Y-83600000D02*
X99600000Y-83700000D01*
X99590000Y-83690000D02*
X96590000Y-83690000D01*
X99500000Y-76400000D02*
X99500000Y-83600000D01*
X99600000Y-83700000D02*
X99590000Y-83690000D01*
%TO.N,Net-(A1-GPIO22)*%
X93800000Y-78600000D02*
X93810000Y-78610000D01*
X93810000Y-78610000D02*
X96590000Y-78610000D01*
X93500000Y-78600000D02*
X93800000Y-78600000D01*
%TO.N,Net-(A1-GPIO26_ADC0)*%
X95000000Y-73700000D02*
X95170000Y-73530000D01*
X95170000Y-73530000D02*
X96590000Y-73530000D01*
%TO.N,Net-(A1-GPIO27_ADC1)*%
X67925000Y-114065000D02*
X67990000Y-114000000D01*
%TO.N,Net-(A1-GPIO28_ADC2)*%
X90400000Y-115300000D02*
X67960000Y-115300000D01*
X91200000Y-67000000D02*
X91200000Y-70000000D01*
X96590000Y-65910000D02*
X92290000Y-65910000D01*
X92290000Y-65910000D02*
X91200000Y-67000000D01*
X91300000Y-72000000D02*
X91400000Y-72000000D01*
X67960000Y-115300000D02*
X67925000Y-115335000D01*
X91300000Y-114400000D02*
X90400000Y-115300000D01*
X91300000Y-72000000D02*
X91300000Y-114400000D01*
%TO.N,+3.3V*%
D44*
X112670000Y-84350000D02*
X111060000Y-85960000D01*
X98430000Y-60830000D02*
X103400000Y-65800000D01*
D42*
X106620000Y-86280000D02*
X106620000Y-86060000D01*
D44*
X111060000Y-85960000D02*
X106520000Y-85960000D01*
X103400000Y-65800000D02*
X103400000Y-83100000D01*
X113650000Y-84350000D02*
X112670000Y-84350000D01*
D42*
X106620000Y-86060000D02*
X106520000Y-85960000D01*
D44*
X103400000Y-83100000D02*
X106600000Y-86300000D01*
X96590000Y-60830000D02*
X98430000Y-60830000D01*
D42*
X106600000Y-86300000D02*
X106620000Y-86280000D01*
%TO.N,Net-(J1-Pin_1)*%
D43*
X107067500Y-56900000D02*
X107100000Y-56867500D01*
%TO.N,+5V*%
D44*
X96590000Y-53210000D02*
X96890000Y-53210000D01*
X96890000Y-53210000D02*
X97000000Y-53100000D01*
%TO.N,Net-(U5-ILIM)*%
X71195000Y-84595000D02*
X71200000Y-84600000D01*
X71200000Y-84600000D02*
X73562500Y-84600000D01*
X73562500Y-84600000D02*
X73600000Y-84637500D01*
X68175000Y-84595000D02*
X71195000Y-84595000D01*
D42*
X73862500Y-84637500D02*
X73900000Y-84600000D01*
%TO.N,Net-(U2-ILIM)*%
D44*
X71100000Y-63512500D02*
X73600000Y-63512500D01*
X71017500Y-63595000D02*
X71100000Y-63512500D01*
X68275000Y-63595000D02*
X71017500Y-63595000D01*
%TO.N,Net-(U13E-B5a)*%
D48*
X62350000Y-85940000D02*
X62425000Y-85865000D01*
D47*
X56600000Y-85840000D02*
X61625000Y-85840000D01*
%TO.N,Net-(U13E-B5b)*%
D48*
X62350000Y-88480000D02*
X62425000Y-88405000D01*
D47*
X56600000Y-88380000D02*
X61625000Y-88380000D01*
%TO.N,Net-(U8-ILIM)*%
D46*
X73462500Y-105700000D02*
X73500000Y-105737500D01*
X67925000Y-105695000D02*
X70705000Y-105695000D01*
X70705000Y-105995000D02*
X71000000Y-105700000D01*
X71000000Y-105700000D02*
X73462500Y-105700000D01*
%TO.N,Net-(U13H-B8a)*%
D48*
X56880000Y-101080000D02*
X56600000Y-101080000D01*
D46*
X56600000Y-101080000D02*
X57080000Y-101080000D01*
X57080000Y-101080000D02*
X60200000Y-104200000D01*
X60865000Y-106965000D02*
X62175000Y-106965000D01*
X60200000Y-106300000D02*
X60865000Y-106965000D01*
X60200000Y-104200000D02*
X60200000Y-106300000D01*
%TO.N,Net-(U13H-B8b)*%
X59800000Y-109500000D02*
X62170000Y-109500000D01*
X62170000Y-109500000D02*
X62175000Y-109505000D01*
X59000000Y-105200000D02*
X59000000Y-108700000D01*
X57420000Y-103620000D02*
X59000000Y-105200000D01*
X56600000Y-103620000D02*
X57420000Y-103620000D01*
X59000000Y-108700000D02*
X59800000Y-109500000D01*
%TO.N,Net-(U9-ILIM)*%
X67925000Y-112795000D02*
X71195000Y-112795000D01*
X71200000Y-112800000D02*
X73562500Y-112800000D01*
X71195000Y-112795000D02*
X71200000Y-112800000D01*
X73562500Y-112800000D02*
X73600000Y-112837500D01*
%TO.N,Net-(U13I-B9a)*%
X62175000Y-114065000D02*
X59865000Y-114065000D01*
X59865000Y-114065000D02*
X57600000Y-111800000D01*
%TO.N,Net-(U13I-B9b)*%
X56600000Y-108700000D02*
X56600000Y-113200000D01*
X60300000Y-116600000D02*
X60305000Y-116605000D01*
X60305000Y-116605000D02*
X62175000Y-116605000D01*
X60000000Y-116600000D02*
X60300000Y-116600000D01*
X56600000Y-113200000D02*
X60000000Y-116600000D01*
%TO.N,Net-(U13D-B4a)*%
X61035000Y-78865000D02*
X59140000Y-80760000D01*
D44*
X62565000Y-78865000D02*
X62600000Y-78900000D01*
D46*
X62325000Y-78865000D02*
X61035000Y-78865000D01*
X59140000Y-80760000D02*
X56600000Y-80760000D01*
%TO.N,Net-(U13D-B4b)*%
X59100000Y-83300000D02*
X56600000Y-83300000D01*
X62325000Y-81405000D02*
X60995000Y-81405000D01*
X60995000Y-81405000D02*
X59100000Y-83300000D01*
%TO.N,Net-(U13B-B2a)*%
X58400000Y-70600000D02*
X58850000Y-70150000D01*
X60200000Y-67500000D02*
X60200000Y-65500000D01*
D42*
X56600000Y-70600000D02*
X57200000Y-70600000D01*
D46*
X60200000Y-65500000D02*
X60835000Y-64865000D01*
X58850000Y-70150000D02*
X58850000Y-68850000D01*
X60835000Y-64865000D02*
X62525000Y-64865000D01*
X58850000Y-68850000D02*
X60200000Y-67500000D01*
X57200000Y-70600000D02*
X58400000Y-70600000D01*
%TO.N,Net-(U13B-B2b)*%
X60400000Y-71200000D02*
X60400000Y-70000000D01*
X57260000Y-73140000D02*
X58460000Y-73140000D01*
X60400000Y-70000000D02*
X62525000Y-67875000D01*
X62525000Y-67875000D02*
X62525000Y-67405000D01*
X58460000Y-73140000D02*
X60400000Y-71200000D01*
D48*
X56600000Y-73140000D02*
X57260000Y-73140000D01*
%TO.N,Net-(A1-GPIO2)*%
D42*
X74810000Y-58290000D02*
X77210000Y-58290000D01*
%TO.N,Net-(A1-GPIO3)*%
X73835000Y-59135000D02*
X75530000Y-60830000D01*
X68375000Y-59135000D02*
X73835000Y-59135000D01*
%TO.N,Net-(A1-GPIO2)*%
X69865000Y-57865000D02*
X70300000Y-58300000D01*
X70300000Y-58300000D02*
X74800000Y-58300000D01*
%TD*%
M02*
