%TF.GenerationSoftware,KiCad,Pcbnew,10.0.0-10.0.0~ubuntu24.04.1*%
%TF.CreationDate,2026-04-20T00:36:44+02:00*%
%TF.ProjectId,att,6174742e-6b69-4636-9164-5f7063625858,rev?*%
%TF.SameCoordinates,Original*%
%TF.FileFunction,Paste,Top*%
%TF.FilePolarity,Positive*%
%FSLAX46Y46*%
G04 Gerber Fmt 4.6, Leading zero omitted, Abs format (unit mm)*
G04 Created by KiCad (PCBNEW 10.0.0-10.0.0~ubuntu24.04.1) date 2026-04-20 00:36:44*
%MOMM*%
%LPD*%
G01*
G04 APERTURE LIST*
G04 Aperture macros list*
%AMRoundRect*
0 Rectangle with rounded corners*
0 $1 Rounding radius*
0 $2 $3 $4 $5 $6 $7 $8 $9 X,Y pos of 4 corners*
0 Add a 4 corners polygon primitive as box body*
4,1,4,$2,$3,$4,$5,$6,$7,$8,$9,$2,$3,0*
0 Add four circle primitives for the rounded corners*
1,1,$1+$1,$2,$3*
1,1,$1+$1,$4,$5*
1,1,$1+$1,$6,$7*
1,1,$1+$1,$8,$9*
0 Add four rect primitives between the rounded corners*
20,1,$1+$1,$2,$3,$4,$5,0*
20,1,$1+$1,$4,$5,$6,$7,0*
20,1,$1+$1,$6,$7,$8,$9,0*
20,1,$1+$1,$8,$9,$2,$3,0*%
G04 Aperture macros list end*
%ADD10RoundRect,0.250000X0.450000X-0.262500X0.450000X0.262500X-0.450000X0.262500X-0.450000X-0.262500X0*%
%ADD11RoundRect,0.250000X-0.450000X0.262500X-0.450000X-0.262500X0.450000X-0.262500X0.450000X0.262500X0*%
%ADD12R,2.400000X3.100000*%
%ADD13R,2.200000X0.500000*%
%ADD14RoundRect,0.250000X0.475000X-0.337500X0.475000X0.337500X-0.475000X0.337500X-0.475000X-0.337500X0*%
%ADD15R,3.800000X2.200000*%
%ADD16O,1.100000X1.800000*%
%ADD17R,2.200000X3.800000*%
%ADD18O,1.050000X1.450000*%
%ADD19RoundRect,0.300000X-0.450000X-0.450000X0.450000X-0.450000X0.450000X0.450000X-0.450000X0.450000X0*%
%ADD20RoundRect,0.250000X-0.450000X0.350000X-0.450000X-0.350000X0.450000X-0.350000X0.450000X0.350000X0*%
%ADD21RoundRect,0.250000X-0.550000X1.500000X-0.550000X-1.500000X0.550000X-1.500000X0.550000X1.500000X0*%
%ADD22RoundRect,0.250000X0.450000X-0.350000X0.450000X0.350000X-0.450000X0.350000X-0.450000X-0.350000X0*%
%ADD23RoundRect,0.250000X-0.475000X0.337500X-0.475000X-0.337500X0.475000X-0.337500X0.475000X0.337500X0*%
%ADD24RoundRect,0.250000X0.550000X-1.500000X0.550000X1.500000X-0.550000X1.500000X-0.550000X-1.500000X0*%
G04 APERTURE END LIST*
D10*
%TO.C,R1*%
X71100000Y-56612500D03*
X71100000Y-54787500D03*
%TD*%
D11*
%TO.C,C1*%
X73700000Y-54687500D03*
X73700000Y-56512500D03*
%TD*%
D10*
%TO.C,R4*%
X71500000Y-77712500D03*
X71500000Y-75887500D03*
%TD*%
D12*
%TO.C,U7*%
X65100000Y-100600000D03*
D13*
X67975000Y-102505000D03*
X67975000Y-101235000D03*
X67975000Y-99965000D03*
X67975000Y-98695000D03*
X62225000Y-98695000D03*
X62225000Y-99965000D03*
X62225000Y-101235000D03*
X62225000Y-102505000D03*
%TD*%
D12*
%TO.C,U3*%
X65350000Y-72600000D03*
D13*
X68225000Y-74505000D03*
X68225000Y-73235000D03*
X68225000Y-71965000D03*
X68225000Y-70695000D03*
X62475000Y-70695000D03*
X62475000Y-71965000D03*
X62475000Y-73235000D03*
X62475000Y-74505000D03*
%TD*%
D12*
%TO.C,U6*%
X65200000Y-93600000D03*
D13*
X68075000Y-95505000D03*
X68075000Y-94235000D03*
X68075000Y-92965000D03*
X68075000Y-91695000D03*
X62325000Y-91695000D03*
X62325000Y-92965000D03*
X62325000Y-94235000D03*
X62325000Y-95505000D03*
%TD*%
D12*
%TO.C,U1*%
X65500000Y-58500000D03*
D13*
X68375000Y-60405000D03*
X68375000Y-59135000D03*
X68375000Y-57865000D03*
X68375000Y-56595000D03*
X62625000Y-56595000D03*
X62625000Y-57865000D03*
X62625000Y-59135000D03*
X62625000Y-60405000D03*
%TD*%
D14*
%TO.C,C6*%
X73700000Y-91637500D03*
X73700000Y-89562500D03*
%TD*%
D11*
%TO.C,C4*%
X73800000Y-75887500D03*
X73800000Y-77712500D03*
%TD*%
D15*
%TO.C,A1*%
X77210000Y-50670000D03*
X77210000Y-53210000D03*
X77210000Y-55750000D03*
X77210000Y-58290000D03*
X77210000Y-60830000D03*
X77210000Y-63370000D03*
X77210000Y-65910000D03*
X77210000Y-68450000D03*
X77210000Y-70990000D03*
X77210000Y-73530000D03*
X77210000Y-76070000D03*
X77210000Y-78610000D03*
X77210000Y-81150000D03*
X77210000Y-83690000D03*
X77210000Y-86230000D03*
X77210000Y-88770000D03*
X77210000Y-91310000D03*
X77210000Y-93850000D03*
X77210000Y-96390000D03*
X77210000Y-98930000D03*
D16*
X84175000Y-50800000D03*
D17*
X84360000Y-99500000D03*
D18*
X84475000Y-53830000D03*
D17*
X86900000Y-99500000D03*
D18*
X89325000Y-53830000D03*
D17*
X89440000Y-99500000D03*
D16*
X89625000Y-50800000D03*
D15*
X96590000Y-50670000D03*
X96590000Y-53210000D03*
X96590000Y-55750000D03*
X96590000Y-58290000D03*
X96590000Y-60830000D03*
X96590000Y-63370000D03*
X96590000Y-65910000D03*
X96590000Y-68450000D03*
X96590000Y-70990000D03*
X96590000Y-73530000D03*
X96590000Y-76070000D03*
X96590000Y-78610000D03*
X96590000Y-81150000D03*
X96590000Y-83690000D03*
X96590000Y-86230000D03*
X96590000Y-88770000D03*
X96590000Y-91310000D03*
X96590000Y-93850000D03*
X96590000Y-96390000D03*
X96590000Y-98930000D03*
D19*
X86900000Y-53800000D03*
X87900000Y-50500000D03*
X85900000Y-50500000D03*
X84400000Y-57300000D03*
X84400000Y-59800000D03*
X84400000Y-62300000D03*
%TD*%
D20*
%TO.C,R5*%
X71200000Y-82600000D03*
X71200000Y-84600000D03*
%TD*%
D21*
%TO.C,C10*%
X72100000Y-118100000D03*
X72100000Y-123700000D03*
%TD*%
D22*
%TO.C,R7*%
X71100000Y-98800000D03*
X71100000Y-96800000D03*
%TD*%
D23*
%TO.C,C5*%
X73600000Y-82562500D03*
X73600000Y-84637500D03*
%TD*%
D11*
%TO.C,C2*%
X73600000Y-61687500D03*
X73600000Y-63512500D03*
%TD*%
D24*
%TO.C,C21*%
X107100000Y-56867500D03*
X107100000Y-51267500D03*
%TD*%
D10*
%TO.C,R3*%
X71300000Y-70712500D03*
X71300000Y-68887500D03*
%TD*%
D12*
%TO.C,U5*%
X65300000Y-86500000D03*
D13*
X68175000Y-88405000D03*
X68175000Y-87135000D03*
X68175000Y-85865000D03*
X68175000Y-84595000D03*
X62425000Y-84595000D03*
X62425000Y-85865000D03*
X62425000Y-87135000D03*
X62425000Y-88405000D03*
%TD*%
D12*
%TO.C,U8*%
X65050000Y-107600000D03*
D13*
X67925000Y-109505000D03*
X67925000Y-108235000D03*
X67925000Y-106965000D03*
X67925000Y-105695000D03*
X62175000Y-105695000D03*
X62175000Y-106965000D03*
X62175000Y-108235000D03*
X62175000Y-109505000D03*
%TD*%
D10*
%TO.C,R2*%
X71100000Y-63512500D03*
X71100000Y-61687500D03*
%TD*%
D12*
%TO.C,U9*%
X65050000Y-114700000D03*
D13*
X67925000Y-116605000D03*
X67925000Y-115335000D03*
X67925000Y-114065000D03*
X67925000Y-112795000D03*
X62175000Y-112795000D03*
X62175000Y-114065000D03*
X62175000Y-115335000D03*
X62175000Y-116605000D03*
%TD*%
D14*
%TO.C,C7*%
X73600000Y-98837500D03*
X73600000Y-96762500D03*
%TD*%
D12*
%TO.C,U4*%
X65200000Y-79500000D03*
D13*
X68075000Y-81405000D03*
X68075000Y-80135000D03*
X68075000Y-78865000D03*
X68075000Y-77595000D03*
X62325000Y-77595000D03*
X62325000Y-78865000D03*
X62325000Y-80135000D03*
X62325000Y-81405000D03*
%TD*%
D23*
%TO.C,C11*%
X101000000Y-50562500D03*
X101000000Y-52637500D03*
%TD*%
D22*
%TO.C,R8*%
X71000000Y-105700000D03*
X71000000Y-103700000D03*
%TD*%
D14*
%TO.C,C12*%
X65800000Y-123437500D03*
X65800000Y-121362500D03*
%TD*%
D22*
%TO.C,R6*%
X71300000Y-91600000D03*
X71300000Y-89600000D03*
%TD*%
%TO.C,R9*%
X71200000Y-112800000D03*
X71200000Y-110800000D03*
%TD*%
D14*
%TO.C,C9*%
X73600000Y-112837500D03*
X73600000Y-110762500D03*
%TD*%
D12*
%TO.C,U2*%
X65400000Y-65500000D03*
D13*
X68275000Y-67405000D03*
X68275000Y-66135000D03*
X68275000Y-64865000D03*
X68275000Y-63595000D03*
X62525000Y-63595000D03*
X62525000Y-64865000D03*
X62525000Y-66135000D03*
X62525000Y-67405000D03*
%TD*%
D10*
%TO.C,C3*%
X73600000Y-70712500D03*
X73600000Y-68887500D03*
%TD*%
D14*
%TO.C,C8*%
X73500000Y-105737500D03*
X73500000Y-103662500D03*
%TD*%
M02*
